<?xml version="1.0" encoding="UTF-8" standalone="no"?>
<!-- Created with Inkscape (http://www.inkscape.org/) -->

<svg
   width="483.211mm"
   height="60.528mm"
   viewBox="0 0 483.21099 60.528"
   version="1.1"
   id="svg1"
   xml:space="preserve"
   inkscape:export-filename="Stabilize.svg"
   inkscape:export-xdpi="96"
   inkscape:export-ydpi="96"
   sodipodi:docname="Barrage.svg"
   inkscape:version="1.4.2 (f4327f4, 2025-05-13)"
   xmlns:inkscape="http://www.inkscape.org/namespaces/inkscape"
   xmlns:sodipodi="http://sodipodi.sourceforge.net/DTD/sodipodi-0.dtd"
   xmlns="http://www.w3.org/2000/svg"
   xmlns:svg="http://www.w3.org/2000/svg"><sodipodi:namedview
     id="namedview1"
     pagecolor="#ffffff"
     bordercolor="#000000"
     borderopacity="0.25"
     inkscape:showpageshadow="2"
     inkscape:pageopacity="0.0"
     inkscape:pagecheckerboard="true"
     inkscape:deskcolor="#d1d1d1"
     inkscape:document-units="mm"
     inkscape:zoom="0.2321369"
     inkscape:cx="812.02084"
     inkscape:cy="-1029.5649"
     inkscape:window-width="1500"
     inkscape:window-height="1094"
     inkscape:window-x="2366"
     inkscape:window-y="39"
     inkscape:window-maximized="0"
     inkscape:current-layer="layer1" /><defs
     id="defs1"><rect
       x="398"
       y="10"
       width="1194"
       height="398"
       id="rect3" /></defs><g
     inkscape:label="Layer 1"
     inkscape:groupmode="layer"
     id="layer1"
     transform="translate(42.994079,-122.0623)"><g
       inkscape:label="Layer 1"
       id="layer1-1"
       transform="translate(43.806975,1.7935886)"
       style="fill:#ff4d00;fill-opacity:1"><text
         xml:space="preserve"
         transform="matrix(1.0460111,0,0,1.0460111,-429.51298,123.66129)"
         id="text2"
         style="font-weight:bold;font-size:74.1972px;line-height:0.6;font-family:Arial;-inkscape-font-specification:'Arial, Bold';font-variant-caps:small-caps;letter-spacing:0px;word-spacing:0px;white-space:pre;shape-inside:url(#rect3);display:inline;fill:#ff4d00;fill-opacity:1;stroke:#ffffff;stroke-width:0.0377953;stroke-miterlimit:3.3"><tspan
           x="398"
           y="52.719365"
           id="tspan2">Barrage</tspan></text></g><path
       fill="currentColor"
       d="m -37.852724,123.97895 v 4.13119 l 33.8641345,31.95593 q 0.7081854,0.66828 1.38418,0.91129 0.6759934,0.24301 1.2554201,0.24301 0.57942168,0 1.15884915,-0.27338 0.57942164,-0.2734 0.96570439,-0.69866 0.90133036,-0.85053 1.03008926,-2.0656 0.1287599,-1.21504 -1.15884829,-2.4301 L -33.024187,123.97895 Z m 52.405713,24.24035 q -0.836946,0 -1.706083,0.0911 -0.869137,0.091 -1.770463,0.27339 l 1.158848,2.12634 q 0.579427,-0.12151 1.126657,-0.15187 0.547235,-0.0303 1.062281,-0.0303 1.545133,0 2.736169,0.3949 1.19104,0.39488 2.027984,1.18468 1.287609,1.27581 1.577325,3.37176 0.289711,2.09597 -0.547235,4.7691 0,0.18226 -0.06438,0.36452 l -0.128765,0.36451 -2.897119,-6.37903 -1.158848,8.20162 -4.313493,-5.65002 -0.193143,7.16884 -4.8929196,-2.24786 q 1.1588487,-1.33656 1.931414,-2.70349 0.7725673,-1.36694 1.2232343,-2.76426 0.5150423,-1.82257 0.3218983,-3.58441 -0.1931388,-1.76182 -1.4807472,-2.97688 -0.7725653,-0.72903 -1.8348469,-1.09355 -1.0622768,-0.36451 -2.221126,-0.36451 -0.7081854,0 -1.448559,0.0911 -0.7403779,0.091 -1.4485595,0.33413 -0.83695048,0.18226 -1.67389594,0.5164 -0.83694522,0.33414 -1.60951086,0.82017 l 1.73827485,1.64033 q 0.57942255,-0.24303 1.12665715,-0.45566 0.5472336,-0.21264 1.0622764,-0.33414 0.6438061,-0.18226 1.1588477,-0.27338 0.5150477,-0.0911 1.0300903,-0.0911 0.7725655,0 1.3841785,0.21264 0.6116153,0.21264 1.0622779,0.6379 0.6438059,0.60754 0.8047581,1.70109 0.1609502,1.09355 -0.2897117,2.61235 -0.5150464,1.51883 -1.609516,3.18953 -1.094464,1.6707 -2.7039799,3.25027 -1.6738905,1.57956 -3.47654512,2.61236 -1.80265078,1.0328 -3.34778278,1.45808 -1.6095127,0.42526 -2.8005519,0.27338 -1.1910393,-0.15189 -1.8348439,-0.75941 -0.6438048,-0.60752 -0.804756,-1.73146 -0.1609512,-1.12392 0.2897128,-2.58199 0.1931408,-0.54677 0.4184722,-1.06316 0.2253325,-0.5164 0.4828539,-1.06318 l -1.738273,-1.70108 q -0.5150451,0.78979 -0.8691361,1.57958 -0.354093,0.78978 -0.611615,1.57957 -0.579425,1.88333 -0.354092,3.64516 0.225331,1.76183 1.512941,2.91614 1.2876085,1.21504 3.1224532,1.42768 1.8348429,0.21263 3.8306364,-0.33415 1.416373,-0.36451 2.86493196,-1.09353 1.44856504,-0.72904 2.86493164,-1.76184 l 2.5108409,4.86022 -8.1119396,0.18225 5.9873815,4.07043 -8.6913635,1.09356 6.50243125,2.55161 q 0,0.0607 -0.032214,0.0607 h -0.0321643 q -2.89712395,0.78978 -5.11825035,0.5164 -2.2211264,-0.27339 -3.5087366,-1.5492 -1.1588481,-1.09355 -1.5451308,-2.73387 -0.386284,-1.64032 0,-3.76668 l -2.1889377,-1.15429 q -0.643804,2.73387 -0.193141,5.16398 0.450664,2.43011 2.1889369,4.07044 1.9314145,1.88333 4.8607265,2.18709 2.9293118,0.30377 6.1483346,-0.54677 3.2190273,-0.9113 6.5668092,-2.85538 3.3477878,-1.94409 6.4380498,-4.86021 3.090262,-2.85539 5.150438,-6.0449 2.060179,-3.18952 2.961503,-6.22716 0.965705,-3.03763 0.611614,-5.7715 -0.35409,-2.73389 -2.285505,-4.55646 -1.223234,-1.1543 -2.832744,-1.70108 -1.609511,-0.54678 -3.476547,-0.60753 z"
       id="path366"
       style="stroke-width:0.0625405;fill:#ff4d00;fill-opacity:1" /></g></svg>
