<?xml version="1.0" encoding="UTF-8" standalone="no"?>
<!-- Created with Inkscape (http://www.inkscape.org/) -->

<svg
   width="311.211mm"
   height="60.528mm"
   viewBox="0 0 311.21099 60.528"
   version="1.1"
   id="svg1"
   xml:space="preserve"
   inkscape:export-filename="Stabilize.svg"
   inkscape:export-xdpi="96"
   inkscape:export-ydpi="96"
   sodipodi:docname="Brace.svg"
   inkscape:version="1.4.2 (f4327f4, 2025-05-13)"
   xmlns:inkscape="http://www.inkscape.org/namespaces/inkscape"
   xmlns:sodipodi="http://sodipodi.sourceforge.net/DTD/sodipodi-0.dtd"
   xmlns="http://www.w3.org/2000/svg"
   xmlns:svg="http://www.w3.org/2000/svg"><sodipodi:namedview
     id="namedview1"
     pagecolor="#ffffff"
     bordercolor="#000000"
     borderopacity="0.25"
     inkscape:showpageshadow="2"
     inkscape:pageopacity="0.0"
     inkscape:pagecheckerboard="true"
     inkscape:deskcolor="#d1d1d1"
     inkscape:document-units="mm"
     inkscape:zoom="0.4642738"
     inkscape:cx="470.62746"
     inkscape:cy="-288.62279"
     inkscape:window-width="1500"
     inkscape:window-height="1094"
     inkscape:window-x="2859"
     inkscape:window-y="72"
     inkscape:window-maximized="0"
     inkscape:current-layer="g15" /><defs
     id="defs1"><rect
       x="398"
       y="10"
       width="1194"
       height="398"
       id="rect3" /></defs><g
     inkscape:label="Layer 1"
     inkscape:groupmode="layer"
     id="layer1"
     transform="translate(42.994079,-122.0623)"><g
       inkscape:label="Layer 1"
       id="layer1-1"
       transform="translate(35.714013,0.97925959)"
       style="fill:#ae03a6;fill-opacity:1"><text
         xml:space="preserve"
         transform="matrix(1.0460111,0,0,1.0460111,-429.51298,123.66129)"
         id="text2"
         style="font-weight:bold;font-size:74.1972px;line-height:0.6;font-family:Arial;-inkscape-font-specification:'Arial, Bold';font-variant-caps:small-caps;letter-spacing:0px;word-spacing:0px;white-space:pre;shape-inside:url(#rect3);display:inline;fill:#ae03a6;fill-opacity:1;stroke:#ffffff;stroke-width:0.0377953;stroke-miterlimit:3.3"><tspan
           x="398"
           y="52.719365"
           id="tspan1">Brace</tspan></text></g><g
       id="g15"
       transform="matrix(0.12823355,0,0,0.11654643,-42.400888,123.34355)"><path
         d="M 0,0 H 512 V 512 H 0 Z"
         fill="url(#pattern)"
         fill-opacity="1"
         id="path1" /><g
         class=""
         id="g2"
         transform="matrix(1.0475406,0,0,1.036382,-18.281308,-9.8553607)"
         style="fill:#ae03a6;fill-opacity:1"><path
           d="M 255.31,17.707 C 210.816,17.31 166,23.734 127.038,36.57 l -6.42,2.116 v 60.978 l -76.463,41.822 1.54,6.866 c 25.895,115.578 95.61,228.743 205.44,333.564 l 6.473,6.178 6.452,-6.2 C 370.945,379.166 438.893,267.838 463.43,152.12 l 1.388,-6.552 -77.142,-45.82 V 42.072 l -6,-2.3 C 343.984,25.324 299.806,18.104 255.311,17.707 Z M 244.8,36.77 v 63.642 l -52.33,30.5 -53.163,-30.644 v -47.89 c 5.96,-1.814 12.082,-3.46 18.318,-4.964 a 36.022,36.022 0 0 0 -2.473,13.133 c 0,19.957 16.18,36.135 36.137,36.135 19.956,0 36.134,-16.178 36.134,-36.135 A 35.976,35.976 0 0 0 219.44,37.904 427.724,427.724 0 0 1 244.8,36.771 Z m 18.69,0.12 c 8.22,0.235 16.405,0.72 24.514,1.438 a 35.975,35.975 0 0 0 -7.65,22.22 c 0,19.956 16.18,36.134 36.136,36.134 19.957,0 36.137,-16.178 36.137,-36.135 0,-3.88 -0.62,-7.61 -1.75,-11.113 6.194,1.72 12.248,3.607 18.11,5.683 v 45.264 L 316.533,130.618 263.49,99.706 Z m 88.828,94.67 a 38.993,38.993 0 0 0 -6.41,21.47 c 0,21.642 17.546,39.19 39.19,39.19 21.643,0 39.19,-17.548 39.19,-39.19 0,-3.705 -0.527,-7.284 -1.487,-10.68 l 20.82,12.365 c -10.61,46.76 -28.647,92.954 -53.91,138.265 v -48.597 l -63.11,-36.78 v -61.216 l 25.718,-14.826 z m -194.37,1.024 24.76,14.273 v 61.454 l -61.894,36.073 v 44.388 c -25.66,-45.406 -44.112,-91.46 -55.2,-137.72 l 22.382,-12.24 a 39.032,39.032 0 0 0 -2.672,14.22 c 0,21.642 17.546,39.19 39.19,39.19 21.643,0 39.19,-17.548 39.19,-39.19 a 39,39 0 0 0 -5.755,-20.446 z m 65.234,2.06 a 35.997,35.997 0 0 0 -3.48,15.48 c 0,19.956 16.18,36.134 36.136,36.134 19.957,0 36.137,-16.178 36.137,-36.135 0,-4.878 -0.973,-9.528 -2.725,-13.773 l 17.844,10.398 v 62.04 l -51.832,30.208 -53.666,-31.277 V 147.224 Z M 161.436,242.34 a 36.514,36.514 0 0 0 -3.313,15.22 c 0,20.238 16.407,36.645 36.645,36.645 20.237,0 36.644,-16.407 36.644,-36.644 0,-4.21 -0.717,-8.25 -2.023,-12.013 l 16.428,9.576 v 56.035 L 188,344.814 v 41.61 c -17.932,-22.006 -34.1,-44.252 -48.498,-66.682 v -64.62 z m 123.822,0.806 a 36.527,36.527 0 0 0 -2.95,14.415 c 0,20.238 16.407,36.645 36.645,36.645 20.238,0 36.645,-16.407 36.645,-36.644 0,-4.487 -0.81,-8.784 -2.286,-12.757 l 17.71,10.32 v 69.123 c -14.053,22.063 -29.835,43.898 -47.333,65.463 v -44.896 l -58.983,-34.332 v -55.36 l 20.55,-11.976 z m -57.56,100.184 a 32.941,32.941 0 0 0 -3.91,15.608 c 0,18.27 14.813,33.082 33.083,33.082 18.27,0 33.083,-14.812 33.083,-33.082 A 32.94,32.94 0 0 0 286.88,345.014 L 305,355.56 v 56.323 c -14.762,16.9 -30.56,33.627 -47.44,50.158 -18.152,-17.645 -35.098,-35.5 -50.873,-53.526 V 355.56 l 21.012,-12.23 z"
           fill="#ffffff"
           fill-opacity="1"
           id="path2"
           style="fill:#ae03a6;fill-opacity:1" /></g></g></g></svg>
