<?xml version="1.0" encoding="UTF-8" standalone="no"?>
<!-- Created with Inkscape (http://www.inkscape.org/) -->

<svg
   width="362.35172mm"
   height="69.922745mm"
   viewBox="0 0 362.35171 69.922745"
   version="1.1"
   id="svg1"
   xml:space="preserve"
   inkscape:export-filename="Stabilize.svg"
   inkscape:export-xdpi="96"
   inkscape:export-ydpi="96"
   sodipodi:docname="Handle.svg"
   inkscape:version="1.4.2 (f4327f4, 2025-05-13)"
   xmlns:inkscape="http://www.inkscape.org/namespaces/inkscape"
   xmlns:sodipodi="http://sodipodi.sourceforge.net/DTD/sodipodi-0.dtd"
   xmlns="http://www.w3.org/2000/svg"
   xmlns:svg="http://www.w3.org/2000/svg"><sodipodi:namedview
     id="namedview1"
     pagecolor="#ffffff"
     bordercolor="#000000"
     borderopacity="0.25"
     inkscape:showpageshadow="2"
     inkscape:pageopacity="0.0"
     inkscape:pagecheckerboard="true"
     inkscape:deskcolor="#d1d1d1"
     inkscape:document-units="mm"
     inkscape:zoom="0.32829115"
     inkscape:cx="245.20917"
     inkscape:cy="-487.37226"
     inkscape:window-width="1500"
     inkscape:window-height="1094"
     inkscape:window-x="2729"
     inkscape:window-y="56"
     inkscape:window-maximized="0"
     inkscape:current-layer="layer1-1"><inkscape:page
       x="0"
       y="0"
       width="362.35172"
       height="69.922745"
       id="page4"
       margin="0"
       bleed="0" /></sodipodi:namedview><defs
     id="defs1"><rect
       x="-825.48676"
       y="176.67244"
       width="344.20667"
       height="39.598995"
       id="rect4" /><rect
       x="103.38727"
       y="-1068.3351"
       width="616.01581"
       height="818.48254"
       id="rect1" /><rect
       x="398"
       y="10"
       width="1194"
       height="398"
       id="rect3" /></defs><g
     inkscape:label="Layer 1"
     inkscape:groupmode="layer"
     id="layer1"
     transform="translate(42.994079,-118.30914)"><g
       inkscape:label="Layer 1"
       id="layer1-1"
       transform="translate(43.806975,1.7935886)"
       style="fill:#ff4d00;fill-opacity:1"><text
         xml:space="preserve"
         transform="matrix(1.0460111,0,0,1.0460111,-429.2532,126.89345)"
         id="text2"
         style="font-weight:bold;font-size:74.1972px;line-height:0.6;font-family:Arial;-inkscape-font-specification:'Arial, Bold';font-variant-caps:small-caps;letter-spacing:0px;word-spacing:0px;white-space:pre;shape-inside:url(#rect3);display:inline;fill:#d4aa00;fill-opacity:1;stroke:#ffffff;stroke-width:0.0377953;stroke-miterlimit:3.3"><tspan
           x="398"
           y="52.719365"
           id="tspan3">Handle</tspan></text><text
         xml:space="preserve"
         transform="matrix(0.26458333,0,0,0.26458333,-86.801054,120.26871)"
         id="text1"
         style="text-align:start;writing-mode:lr-tb;direction:ltr;white-space:pre;shape-inside:url(#rect1);display:inline;fill:#ff4d00;fill-opacity:1;stroke:#ffffff;stroke-width:0.445984" /><text
         xml:space="preserve"
         transform="matrix(0.26458333,0,0,0.26458333,-86.801054,120.26871)"
         id="text3"
         style="text-align:start;writing-mode:lr-tb;direction:ltr;white-space:pre;shape-inside:url(#rect4);display:inline;fill:#6c5d53;fill-opacity:1;stroke:#ffffff;stroke-width:0.445984" /><g
         id="g4"
         transform="matrix(0.1666341,0,0,0.15383392,-90.05802,109.74275)"><path
           d="M 0,0 H 512 V 512 H 0 Z"
           fill="url(#pattern)"
           fill-opacity="1"
           id="path1" /><g
           class=""
           id="g2"
           style="fill:#d4aa00"><path
             d="m 35.68,54.7 -4.89,17.17 92.71,27.3 5.3,1.53 50.2,266.7 c 3.4,-1.2 6.9,-2.2 10.6,-2.9 1.7,-0.3 3.3,-0.5 5,-0.7 L 142.1,85.03 Z M 310.3,113.9 170.8,140.2 191.2,248.1 330.7,222 Z m 86.6,113.9 -45.2,8.5 v 0.1 l -128.5,24.1 -28.7,5.4 18.4,98 c 21.3,3 40.3,15.3 51.8,33.3 L 423.2,367.4 Z M 458,379.1 272.6,414 c 0.9,2.9 1.6,5.8 2.2,8.8 0.4,2.3 0.8,4.6 1,6.9 l 185.1,-34.8 z m -254,2.1 c -3.6,0 -7.3,0.3 -11.1,1 -29.9,5.6 -49.5,34.3 -43.8,64.2 5.6,30 34.2,49.5 64.2,43.9 30,-5.6 49.5,-34.2 43.9,-64.2 -5,-26.3 -27.5,-44.5 -53.2,-44.9 z m -1.6,21.3 c 15.3,0.3 29,11.3 32,26.9 3.3,17.7 -8.6,35.1 -26.4,38.5 -17.8,3.3 -35.1,-8.5 -38.5,-26.3 -3.3,-17.8 8.5,-35.2 26.3,-38.6 2.2,-0.4 4.4,-0.6 6.6,-0.5 z m -0.2,17.9 c -1,0 -2,0.1 -3,0.3 -8.3,1.6 -13.6,9.3 -12,17.5 1.5,8.3 9.3,13.6 17.5,12 8.3,-1.6 13.5,-9.3 12,-17.5 -1.4,-7.3 -7.5,-12.2 -14.5,-12.3 z"
             fill="#ffffff"
             fill-opacity="1"
             id="path2"
             style="fill:#d4aa00" /></g></g></g></g></svg>
