<?xml version="1.0" encoding="UTF-8" standalone="no"?>
<!-- Created with Inkscape (http://www.inkscape.org/) -->

<svg
   width="337.2767mm"
   height="69.922745mm"
   viewBox="0 0 337.2767 69.922745"
   version="1.1"
   id="svg1"
   xml:space="preserve"
   inkscape:export-filename="Stabilize.svg"
   inkscape:export-xdpi="96"
   inkscape:export-ydpi="96"
   sodipodi:docname="Pickup.svg"
   inkscape:version="1.4.2 (f4327f4, 2025-05-13)"
   xmlns:inkscape="http://www.inkscape.org/namespaces/inkscape"
   xmlns:sodipodi="http://sodipodi.sourceforge.net/DTD/sodipodi-0.dtd"
   xmlns="http://www.w3.org/2000/svg"
   xmlns:svg="http://www.w3.org/2000/svg"><sodipodi:namedview
     id="namedview1"
     pagecolor="#ffffff"
     bordercolor="#000000"
     borderopacity="0.25"
     inkscape:showpageshadow="2"
     inkscape:pageopacity="0.0"
     inkscape:pagecheckerboard="true"
     inkscape:deskcolor="#d1d1d1"
     inkscape:document-units="mm"
     inkscape:zoom="0.4642738"
     inkscape:cx="718.32613"
     inkscape:cy="51.693635"
     inkscape:window-width="1500"
     inkscape:window-height="1094"
     inkscape:window-x="2729"
     inkscape:window-y="56"
     inkscape:window-maximized="0"
     inkscape:current-layer="layer1-1"><inkscape:page
       x="0"
       y="0"
       width="337.2767"
       height="69.922745"
       id="page4"
       margin="0"
       bleed="0" /></sodipodi:namedview><defs
     id="defs1"><rect
       x="-825.48676"
       y="176.67244"
       width="344.20667"
       height="39.598995"
       id="rect4" /><rect
       x="103.38727"
       y="-1068.3351"
       width="616.01581"
       height="818.48254"
       id="rect1" /><rect
       x="398"
       y="10"
       width="1194"
       height="398"
       id="rect3" /></defs><g
     inkscape:label="Layer 1"
     inkscape:groupmode="layer"
     id="layer1"
     transform="translate(42.994079,-118.30914)"><g
       inkscape:label="Layer 1"
       id="layer1-1"
       transform="translate(43.806975,1.7935886)"
       style="fill:#ff4d00;fill-opacity:1"><text
         xml:space="preserve"
         transform="matrix(1.0460111,0,0,1.0460111,-429.2532,126.89345)"
         id="text2"
         style="font-weight:bold;font-size:74.1972px;line-height:0.6;font-family:Arial;-inkscape-font-specification:'Arial, Bold';font-variant-caps:small-caps;letter-spacing:0px;word-spacing:0px;white-space:pre;shape-inside:url(#rect3);display:inline;fill:#5f5fd3;fill-opacity:1;stroke:#ffffff;stroke-width:0.0377953;stroke-miterlimit:3.3"><tspan
           x="398"
           y="52.719365"
           id="tspan3">Pickup</tspan></text><text
         xml:space="preserve"
         transform="matrix(0.26458333,0,0,0.26458333,-86.801054,120.26871)"
         id="text1"
         style="text-align:start;writing-mode:lr-tb;direction:ltr;white-space:pre;shape-inside:url(#rect1);display:inline;fill:#ff4d00;fill-opacity:1;stroke:#ffffff;stroke-width:0.445984" /><text
         xml:space="preserve"
         transform="matrix(0.26458333,0,0,0.26458333,-86.801054,120.26871)"
         id="text3"
         style="text-align:start;writing-mode:lr-tb;direction:ltr;white-space:pre;shape-inside:url(#rect4);display:inline;fill:#6c5d53;fill-opacity:1;stroke:#ffffff;stroke-width:0.445984" /><g
         id="g4"
         transform="matrix(0.14337734,0,0,0.13078451,-86.548725,119.49422)"><path
           d="M 0,0 H 512 V 512 H 0 Z"
           fill="url(#pattern)"
           fill-opacity="1"
           id="path1" /><g
           class=""
           id="g2"
           style="fill:#5f5fd3"><path
             d="m 470.92,53.162 c 21.738,76.755 -126.736,189.16 -213.57,251.49 4.21,19.66 2.796,37.915 0,55.825 20.223,32.576 0.83,44.814 2.76,82.5 -1.05,13.887 -23.797,12.58 -28.066,-8.576 4.852,-31.07 -2.95,-57.924 -15.472,-54.243 l -31.933,43.23 -47.61,67.04 c -5.897,5.975 -27.768,1.664 -22.4,-12.69 l 39.123,-71.307 -3.784,-2.538 -74.42,79 c -6.056,6.26 -26.28,-7.956 -19.953,-16.503 l 69.72,-74.202 -3.783,-1.925 -66.576,44.227 C 47.36,439.82 32.151,424.15 42.328,416.827 l 63.976,-50.98 -43.874,22.025 c -6.156,2.1 -12.68,-10.355 -5.976,-13.335 l 50.997,-32.6 c 26.468,-21.393 58.785,-57.834 94.072,-65.2 55.417,-83.656 104.97,-167.018 175.057,-253.61 26.274,-13.577 86.7,8.58 94.34,30.035 z"
             fill="#ffffff"
             fill-opacity="1"
             id="path2"
             style="fill:#5f5fd3" /></g></g></g></g></svg>
