<?xml version="1.0" encoding="UTF-8" standalone="no"?>
<!-- Created with Inkscape (http://www.inkscape.org/) -->

<svg
   width="410.61734mm"
   height="70.728683mm"
   viewBox="0 0 410.61734 70.728684"
   version="1.1"
   id="svg1"
   xml:space="preserve"
   inkscape:export-filename="Stabilize.svg"
   inkscape:export-xdpi="96"
   inkscape:export-ydpi="96"
   sodipodi:docname="Prepare.svg"
   inkscape:version="1.4.2 (f4327f4, 2025-05-13)"
   xmlns:inkscape="http://www.inkscape.org/namespaces/inkscape"
   xmlns:sodipodi="http://sodipodi.sourceforge.net/DTD/sodipodi-0.dtd"
   xmlns="http://www.w3.org/2000/svg"
   xmlns:svg="http://www.w3.org/2000/svg"><sodipodi:namedview
     id="namedview1"
     pagecolor="#ffffff"
     bordercolor="#000000"
     borderopacity="0.25"
     inkscape:showpageshadow="2"
     inkscape:pageopacity="0.0"
     inkscape:pagecheckerboard="true"
     inkscape:deskcolor="#d1d1d1"
     inkscape:document-units="mm"
     inkscape:zoom="0.32829115"
     inkscape:cx="257.39348"
     inkscape:cy="-356.39097"
     inkscape:window-width="1500"
     inkscape:window-height="1094"
     inkscape:window-x="2729"
     inkscape:window-y="56"
     inkscape:window-maximized="0"
     inkscape:current-layer="g6"><inkscape:page
       x="0"
       y="0"
       width="410.61734"
       height="70.728683"
       id="page4"
       margin="0"
       bleed="0" /></sodipodi:namedview><defs
     id="defs1"><rect
       x="-825.48676"
       y="176.67244"
       width="344.20667"
       height="39.598995"
       id="rect4" /><rect
       x="103.38727"
       y="-1068.3351"
       width="616.01581"
       height="818.48254"
       id="rect1" /><rect
       x="398"
       y="10"
       width="1194"
       height="398"
       id="rect3" /></defs><g
     inkscape:label="Layer 1"
     inkscape:groupmode="layer"
     id="layer1"
     transform="translate(42.994079,-117.5032)"><g
       inkscape:label="Layer 1"
       id="layer1-1"
       transform="translate(43.806975,1.7935886)"
       style="fill:#ff4d00;fill-opacity:1"><text
         xml:space="preserve"
         transform="matrix(1.0460111,0,0,1.0460111,-429.2532,126.89345)"
         id="text2"
         style="font-weight:bold;font-size:74.1972px;line-height:0.6;font-family:Arial;-inkscape-font-specification:'Arial, Bold';font-variant-caps:small-caps;letter-spacing:0px;word-spacing:0px;white-space:pre;shape-inside:url(#rect3);display:inline;fill:#5a2ca0;fill-opacity:1;stroke:#ffffff;stroke-width:0.0377953;stroke-miterlimit:3.3"><tspan
           x="398"
           y="52.719365"
           id="tspan3">Prepare</tspan></text><text
         xml:space="preserve"
         transform="matrix(0.26458333,0,0,0.26458333,-86.801054,120.26871)"
         id="text1"
         style="text-align:start;writing-mode:lr-tb;direction:ltr;white-space:pre;shape-inside:url(#rect1);display:inline;fill:#ff4d00;fill-opacity:1;stroke:#ffffff;stroke-width:0.445984" /><text
         xml:space="preserve"
         transform="matrix(0.26458333,0,0,0.26458333,-86.801054,120.26871)"
         id="text3"
         style="text-align:start;writing-mode:lr-tb;direction:ltr;white-space:pre;shape-inside:url(#rect4);display:inline;fill:#6c5d53;fill-opacity:1;stroke:#ffffff;stroke-width:0.445984" /><g
         id="g5"
         transform="matrix(0.14325985,0,0,0.14381638,-87.08913,114.40021)"><path
           d="M 0,0 H 512 V 512 H 0 Z"
           fill="url(#pattern)"
           fill-opacity="1"
           id="path1-8" /><g
           id="g6"
           transform="matrix(0.96236305,0,0,0.9312759,17.880782,15.004069)"><path
             d="M 0,0 H 512 V 512 H 0 Z"
             fill="url(#pattern)"
             fill-opacity="1"
             id="path1" /><g
             class=""
             id="g2"
             style="fill:#5a2ca0"><path
               d="m 247,18.656 c -80.965,0 -146.875,65.02 -146.875,145.625 0,45.63 15.758,67 33.313,94.845 11.706,18.57 23.767,39.91 30.53,70.563 h 165.095 c 6.728,-31.387 18.91,-53.12 30.718,-71.875 17.58,-27.92 33.314,-48.912 33.314,-93.532 0,-80.66 -65.127,-145.624 -146.094,-145.624 z M 147.22,146.562 170.437,167 210,201.813 l 31.188,-34.125 6.78,-7.438 6.907,7.344 30.75,32.72 39.97,-33.47 22.686,-19 -7.655,28.594 -35.876,133.842 -18.063,-4.842 28.22,-105.25 -24.032,20.125 -6.78,5.656 -6.033,-6.44 -29.906,-31.78 -30.562,33.438 -6.188,6.78 -6.875,-6.062 -23.25,-20.437 27.94,104.218 -18.064,4.812 -35.937,-134.063 -8,-29.875 z m 22.593,201.813 V 389.5 L 315,348.375 H 169.812 Z m 153.593,17.063 -153.594,43.53 v 29.438 l 153.594,-43.5 v -29.47 z m 0,48.875 -119.436,33.843 h 119.436 v -33.844 z m -132.562,52.53 v 20.533 h 113.282 v -20.53 h -113.28 z"
               fill="#ffffff"
               fill-opacity="1"
               id="path2"
               style="fill:#5a2ca0" /></g></g></g></g></g></svg>
