<?xml version="1.0" encoding="UTF-8" standalone="no"?>
<!-- Created with Inkscape (http://www.inkscape.org/) -->

<svg
   width="476.03922mm"
   height="68.310867mm"
   viewBox="0 0 476.03921 68.310867"
   version="1.1"
   id="svg1"
   xml:space="preserve"
   inkscape:export-filename="Stabilize.svg"
   inkscape:export-xdpi="96"
   inkscape:export-ydpi="96"
   sodipodi:docname="Protocol.svg"
   inkscape:version="1.4.2 (f4327f4, 2025-05-13)"
   xmlns:inkscape="http://www.inkscape.org/namespaces/inkscape"
   xmlns:sodipodi="http://sodipodi.sourceforge.net/DTD/sodipodi-0.dtd"
   xmlns="http://www.w3.org/2000/svg"
   xmlns:svg="http://www.w3.org/2000/svg"><sodipodi:namedview
     id="namedview1"
     pagecolor="#ffffff"
     bordercolor="#000000"
     borderopacity="0.25"
     inkscape:showpageshadow="2"
     inkscape:pageopacity="0.0"
     inkscape:pagecheckerboard="true"
     inkscape:deskcolor="#d1d1d1"
     inkscape:document-units="mm"
     inkscape:zoom="0.32829115"
     inkscape:cx="793.50296"
     inkscape:cy="-456.91149"
     inkscape:window-width="1500"
     inkscape:window-height="1094"
     inkscape:window-x="2729"
     inkscape:window-y="56"
     inkscape:window-maximized="0"
     inkscape:current-layer="layer1-1"><inkscape:page
       x="0"
       y="2.0876865e-08"
       width="476.03922"
       height="68.310867"
       id="page4"
       margin="0 0 0"
       bleed="0" /><inkscape:page
       x="-93.461372"
       y="-423.99551"
       width="0"
       height="0"
       id="page11"
       margin="0"
       bleed="0" /><inkscape:page
       x="39.892052"
       y="-94.601143"
       width="0"
       height="6.8386369"
       id="page12"
       margin="0"
       bleed="0" /></sodipodi:namedview><defs
     id="defs1"><rect
       x="-158.39598"
       y="-1434.7021"
       width="3.0460765"
       height="12.184307"
       id="rect9" /><rect
       x="335.06842"
       y="-271.10083"
       width="3.0460765"
       height="18.276461"
       id="rect8" /><rect
       x="1098.4897"
       y="-318.7774"
       width="8.6156054"
       height="17.231213"
       id="rect7" /><rect
       x="-825.48676"
       y="176.67244"
       width="344.20667"
       height="39.598995"
       id="rect4" /><rect
       x="103.38727"
       y="-1068.3351"
       width="616.01581"
       height="818.48254"
       id="rect1" /><rect
       x="398"
       y="10"
       width="1194"
       height="398"
       id="rect3" /></defs><g
     inkscape:label="Layer 1"
     inkscape:groupmode="layer"
     id="layer1"
     transform="translate(42.994079,-119.92101)"><g
       inkscape:label="Layer 1"
       id="layer1-1"
       transform="translate(43.806975,1.7935886)"
       style="fill:#ff4d00;fill-opacity:1"><text
         xml:space="preserve"
         transform="matrix(1.0460111,0,0,1.0460111,-414.35167,124.97638)"
         id="text2"
         style="font-weight:bold;font-size:74.1972px;line-height:0.6;font-family:Arial;-inkscape-font-specification:'Arial, Bold';font-variant-caps:small-caps;letter-spacing:0px;word-spacing:0px;white-space:pre;shape-inside:url(#rect3);display:inline;fill:#00aa88;fill-opacity:1;stroke:#ffffff;stroke-width:0.0377953;stroke-miterlimit:3.3"><tspan
           x="398"
           y="52.719365"
           id="tspan3">Protocol</tspan></text><text
         xml:space="preserve"
         transform="matrix(0.26458333,0,0,0.26458333,-86.801054,120.26871)"
         id="text1"
         style="text-align:start;writing-mode:lr-tb;direction:ltr;white-space:pre;shape-inside:url(#rect1);display:inline;fill:#ff4d00;fill-opacity:1;stroke:#ffffff;stroke-width:0.445984" /><text
         xml:space="preserve"
         transform="matrix(0.26458333,0,0,0.26458333,-86.801054,120.26871)"
         id="text3"
         style="text-align:start;writing-mode:lr-tb;direction:ltr;white-space:pre;shape-inside:url(#rect4);display:inline;fill:#6c5d53;fill-opacity:1;stroke:#ffffff;stroke-width:0.445984" /><text
         xml:space="preserve"
         transform="matrix(0.26458333,0,0,0.26458333,-86.801054,118.46126)"
         id="text7"
         style="text-align:start;writing-mode:lr-tb;direction:ltr;white-space:pre;shape-inside:url(#rect7);display:inline;fill:#939dac;fill-opacity:1;stroke:#ffffff;stroke-width:0.445984" /><text
         xml:space="preserve"
         transform="matrix(0.26458333,0,0,0.26458333,-86.801054,118.46126)"
         id="text8"
         style="text-align:start;writing-mode:lr-tb;direction:ltr;white-space:pre;shape-inside:url(#rect8);display:inline;fill:#dbe3e2;fill-opacity:1;stroke:#ffffff;stroke-width:0.445984" /><text
         xml:space="preserve"
         transform="matrix(0.26458333,0,0,0.26458333,-86.801054,118.46126)"
         id="text9"
         style="text-align:start;writing-mode:lr-tb;direction:ltr;white-space:pre;shape-inside:url(#rect9);display:inline;fill:#c8ab37;fill-opacity:1;stroke:#ffffff;stroke-width:0.445984" /><path
         fill="currentColor"
         d="m -43.585628,120.29962 q -6.708625,0 -12.867353,2.65099 -6.158728,2.65099 -10.777776,7.10465 -4.619049,4.45366 -7.368481,10.39187 -2.74944,5.93821 -2.74944,12.40662 h 7.478465 q 0,-4.87781 2.199544,-9.43751 2.199544,-4.5597 5.883784,-8.11203 3.684248,-3.55232 8.413272,-5.67311 4.729024,-2.12079 9.787985,-2.12079 5.278912,0 10.172896,2.33287 4.893992,2.33287 8.523248,6.15029 l -7.478456,2.33288 18.806121,7.31672 v -20.78375 l -4.948976,6.68049 q -4.729033,-5.08989 -11.272681,-8.16504 -6.543648,-3.07515 -13.802152,-3.07515 z m 0,25.34345 v 0 0 q -3.079369,0 -5.278912,2.12079 -2.199553,2.12079 -2.199553,5.08989 v 0 0 0 0 0 q 0,2.96911 2.199553,5.0899 2.199543,2.12079 5.278912,2.12079 v 0 0 0 0 0 q 3.07936,0 5.278912,-2.12079 2.199544,-2.12079 2.199544,-5.0899 v 0 0 0 0 0 q 0,-2.9691 -2.199544,-5.08989 -2.199552,-2.12079 -5.278912,-2.12079 z m 26.284577,7.21068 v 0 q 0,4.87782 -2.199544,9.43752 -2.199544,4.5597 -5.883784,8.11202 -3.684241,3.55233 -8.413273,5.67312 -4.729024,2.12079 -9.787976,2.12079 -5.278912,0 -10.172905,-2.33287 -4.893992,-2.33287 -8.523248,-6.15029 l 7.478464,-2.33287 -18.806129,-7.31673 v 20.78374 l 4.948985,-6.68048 q 4.729024,5.0899 11.272672,8.16504 6.543656,3.07515 13.802161,3.07515 6.708616,0 12.867344,-2.65099 6.158728,-2.65099 10.777777,-7.10465 4.619048,-4.45366 7.368488,-10.39187 2.7494315,-5.93821 2.7494315,-12.40663 v 0 z"
         id="path1633"
         style="stroke-width:0.107991;fill:#00aa88" /></g></g></svg>
