<?xml version="1.0" encoding="UTF-8" standalone="no"?>
<!-- Created with Inkscape (http://www.inkscape.org/) -->

<svg
   width="582.74744mm"
   height="67.171089mm"
   viewBox="0 0 582.74744 67.171089"
   version="1.1"
   id="svg1"
   xml:space="preserve"
   inkscape:export-filename="Stabilize.svg"
   inkscape:export-xdpi="96"
   inkscape:export-ydpi="96"
   sodipodi:docname="QuickAction.svg"
   inkscape:version="1.4.2 (f4327f4, 2025-05-13)"
   xmlns:inkscape="http://www.inkscape.org/namespaces/inkscape"
   xmlns:sodipodi="http://sodipodi.sourceforge.net/DTD/sodipodi-0.dtd"
   xmlns="http://www.w3.org/2000/svg"
   xmlns:svg="http://www.w3.org/2000/svg"><sodipodi:namedview
     id="namedview1"
     pagecolor="#ffffff"
     bordercolor="#000000"
     borderopacity="0.25"
     inkscape:showpageshadow="2"
     inkscape:pageopacity="0.0"
     inkscape:pagecheckerboard="true"
     inkscape:deskcolor="#d1d1d1"
     inkscape:document-units="mm"
     inkscape:zoom="0.2321369"
     inkscape:cx="368.31715"
     inkscape:cy="-267.08378"
     inkscape:window-width="1500"
     inkscape:window-height="1094"
     inkscape:window-x="2729"
     inkscape:window-y="56"
     inkscape:window-maximized="0"
     inkscape:current-layer="layer1-1"><inkscape:page
       x="0"
       y="0"
       width="582.74744"
       height="67.171089"
       id="page4"
       margin="0"
       bleed="0" /><inkscape:page
       x="-93.461373"
       y="-425.13527"
       width="0"
       height="0"
       id="page11" /><inkscape:page
       x="39.89205"
       y="-95.740918"
       width="0"
       height="6.838637"
       id="page12" /></sodipodi:namedview><defs
     id="defs1"><rect
       x="-158.39598"
       y="-1434.7021"
       width="3.0460765"
       height="12.184307"
       id="rect9" /><rect
       x="335.06842"
       y="-271.10083"
       width="3.0460765"
       height="18.276461"
       id="rect8" /><rect
       x="1098.4897"
       y="-318.7774"
       width="8.6156054"
       height="17.231213"
       id="rect7" /><rect
       x="-825.48676"
       y="176.67244"
       width="344.20667"
       height="39.598995"
       id="rect4" /><rect
       x="103.38727"
       y="-1068.3351"
       width="616.01581"
       height="818.48254"
       id="rect1" /><rect
       x="398"
       y="10"
       width="1194"
       height="398"
       id="rect3" /></defs><g
     inkscape:label="Layer 1"
     inkscape:groupmode="layer"
     id="layer1"
     transform="translate(42.994079,-121.06079)"><g
       inkscape:label="Layer 1"
       id="layer1-1"
       transform="translate(43.806975,1.7935886)"
       style="fill:#ff4d00;fill-opacity:1"><text
         xml:space="preserve"
         transform="matrix(1.0460111,0,0,1.0460111,-427.24673,124.97638)"
         id="text2"
         style="font-weight:bold;font-size:74.1972px;line-height:0.6;font-family:Arial;-inkscape-font-specification:'Arial, Bold';font-variant-caps:small-caps;letter-spacing:0px;word-spacing:0px;white-space:pre;shape-inside:url(#rect3);display:inline;fill:#0066ff;fill-opacity:1;stroke:#ffffff;stroke-width:0.0377953;stroke-miterlimit:3.3"><tspan
           x="398"
           y="52.719365"
           id="tspan3">Quick Action</tspan></text><text
         xml:space="preserve"
         transform="matrix(0.26458333,0,0,0.26458333,-86.801054,120.26871)"
         id="text1"
         style="text-align:start;writing-mode:lr-tb;direction:ltr;white-space:pre;shape-inside:url(#rect1);display:inline;fill:#ff4d00;fill-opacity:1;stroke:#ffffff;stroke-width:0.445984" /><text
         xml:space="preserve"
         transform="matrix(0.26458333,0,0,0.26458333,-86.801054,120.26871)"
         id="text3"
         style="text-align:start;writing-mode:lr-tb;direction:ltr;white-space:pre;shape-inside:url(#rect4);display:inline;fill:#6c5d53;fill-opacity:1;stroke:#ffffff;stroke-width:0.445984" /><text
         xml:space="preserve"
         transform="matrix(0.26458333,0,0,0.26458333,-86.801054,118.46126)"
         id="text7"
         style="text-align:start;writing-mode:lr-tb;direction:ltr;white-space:pre;shape-inside:url(#rect7);display:inline;fill:#939dac;fill-opacity:1;stroke:#ffffff;stroke-width:0.445984" /><text
         xml:space="preserve"
         transform="matrix(0.26458333,0,0,0.26458333,-86.801054,118.46126)"
         id="text8"
         style="text-align:start;writing-mode:lr-tb;direction:ltr;white-space:pre;shape-inside:url(#rect8);display:inline;fill:#dbe3e2;fill-opacity:1;stroke:#ffffff;stroke-width:0.445984" /><text
         xml:space="preserve"
         transform="matrix(0.26458333,0,0,0.26458333,-86.801054,118.46126)"
         id="text9"
         style="text-align:start;writing-mode:lr-tb;direction:ltr;white-space:pre;shape-inside:url(#rect9);display:inline;fill:#c8ab37;fill-opacity:1;stroke:#ffffff;stroke-width:0.445984" /><path
         d="m -48.919524,131.20374 21.736024,11.14478 v 21.89256 l -21.736024,11.14478 v -44.18212 m 32.604038,36.97279 c 0,1.25665 -0.761274,2.34794 -1.920028,2.91015 l -28.618988,14.68325 c -0.579172,0.39747 -1.304847,0.59495 -2.065022,0.59495 -0.761275,0 -1.485307,-0.19874 -2.064893,-0.59495 l -28.619127,-14.68325 c -1.159713,-0.56245 -1.920025,-1.6535 -1.920025,-2.91015 v -29.76334 c 0,-1.25677 0.761275,-2.34807 1.920025,-2.91027 l 28.619127,-14.68325 c 0.579173,-0.39747 1.30348,-0.59496 2.064893,-0.59496 0.761267,0 1.485299,0.19874 2.065022,0.59496 l 28.618988,14.68325 c 1.159711,0.56245 1.920028,1.6535 1.920028,2.91027 v 29.76334 m -32.604038,-40.84199 -25.358655,13.02975 v 25.86102 l 25.358655,13.02974 25.358787,-13.02974 v -25.86102 z"
         id="path1"
         style="fill:#0066ff;stroke-width:3.46125" /><path
         d="m 122.21978,-103.69189 1.5875,0.89165 v 1.75154 l -1.5875,0.89165 -1.5875,-0.89165 v -1.75154 l 1.5875,-0.89165 m 2.38125,2.95805 c 0,0.10054 -0.0556,0.18785 -0.14023,0.23283 l -2.09021,1.174755 c -0.0423,0.0318 -0.0953,0.0476 -0.15081,0.0476 -0.0556,0 -0.10848,-0.0159 -0.15081,-0.0476 l -2.09021,-1.174755 c -0.0847,-0.045 -0.14023,-0.13229 -0.14023,-0.23283 v -2.38125 c 0,-0.10055 0.0556,-0.18786 0.14023,-0.23284 l 2.09021,-1.17475 c 0.0423,-0.0318 0.0953,-0.0476 0.15081,-0.0476 0.0556,0 0.10848,0.0159 0.15081,0.0476 l 2.09021,1.17475 c 0.0847,0.045 0.14023,0.13229 0.14023,0.23284 v 2.38125 m -2.38125,-3.26761 -1.85208,1.04246 v 2.06904 l 1.85208,1.042465 1.85208,-1.042465 v -2.06904 z"
         id="path1-1"
         style="stroke-width:0.264583" /></g></g></svg>
