<?xml version="1.0" encoding="UTF-8" standalone="no"?>
<!-- Created with Inkscape (http://www.inkscape.org/) -->

<svg
   width="362.35172mm"
   height="69.922745mm"
   viewBox="0 0 362.35171 69.922745"
   version="1.1"
   id="svg1"
   xml:space="preserve"
   inkscape:export-filename="Stabilize.svg"
   inkscape:export-xdpi="96"
   inkscape:export-ydpi="96"
   sodipodi:docname="Search.svg"
   inkscape:version="1.4.2 (f4327f4, 2025-05-13)"
   xmlns:inkscape="http://www.inkscape.org/namespaces/inkscape"
   xmlns:sodipodi="http://sodipodi.sourceforge.net/DTD/sodipodi-0.dtd"
   xmlns="http://www.w3.org/2000/svg"
   xmlns:svg="http://www.w3.org/2000/svg"><sodipodi:namedview
     id="namedview1"
     pagecolor="#ffffff"
     bordercolor="#000000"
     borderopacity="0.25"
     inkscape:showpageshadow="2"
     inkscape:pageopacity="0.0"
     inkscape:pagecheckerboard="true"
     inkscape:deskcolor="#d1d1d1"
     inkscape:document-units="mm"
     inkscape:zoom="0.2321369"
     inkscape:cx="92.617762"
     inkscape:cy="-1400.0359"
     inkscape:window-width="1500"
     inkscape:window-height="1094"
     inkscape:window-x="2729"
     inkscape:window-y="56"
     inkscape:window-maximized="0"
     inkscape:current-layer="layer1-1"><inkscape:page
       x="0"
       y="0"
       width="362.35172"
       height="69.922745"
       id="page4"
       margin="0"
       bleed="0" /></sodipodi:namedview><defs
     id="defs1"><rect
       x="-825.48676"
       y="176.67244"
       width="344.20667"
       height="39.598995"
       id="rect4" /><rect
       x="103.38727"
       y="-1068.3351"
       width="616.01581"
       height="818.48254"
       id="rect1" /><rect
       x="398"
       y="10"
       width="1194"
       height="398"
       id="rect3" /></defs><g
     inkscape:label="Layer 1"
     inkscape:groupmode="layer"
     id="layer1"
     transform="translate(42.994079,-118.30914)"><g
       inkscape:label="Layer 1"
       id="layer1-1"
       transform="translate(43.806975,1.7935886)"
       style="fill:#ff4d00;fill-opacity:1"><text
         xml:space="preserve"
         transform="matrix(1.0460111,0,0,1.0460111,-429.2532,126.89345)"
         id="text2"
         style="font-weight:bold;font-size:74.1972px;line-height:0.6;font-family:Arial;-inkscape-font-specification:'Arial, Bold';font-variant-caps:small-caps;letter-spacing:0px;word-spacing:0px;white-space:pre;shape-inside:url(#rect3);display:inline;fill:#c8beb7;fill-opacity:1;stroke:#ffffff;stroke-width:0.0377953;stroke-miterlimit:3.3"><tspan
           x="398"
           y="52.719365"
           id="tspan3">Search</tspan></text><text
         xml:space="preserve"
         transform="matrix(0.26458333,0,0,0.26458333,-86.801054,120.26871)"
         id="text1"
         style="text-align:start;writing-mode:lr-tb;direction:ltr;white-space:pre;shape-inside:url(#rect1);display:inline;fill:#ff4d00;fill-opacity:1;stroke:#ffffff;stroke-width:0.445984" /><text
         xml:space="preserve"
         transform="matrix(0.26458333,0,0,0.26458333,-86.801054,120.26871)"
         id="text3"
         style="text-align:start;writing-mode:lr-tb;direction:ltr;white-space:pre;shape-inside:url(#rect4);display:inline;fill:#6c5d53;fill-opacity:1;stroke:#ffffff;stroke-width:0.445984" /><g
         id="g4"
         transform="matrix(0.14259029,0,0,0.13235862,-85.75129,118.59727)"><path
           d="M 0,0 H 512 V 512 H 0 Z"
           fill="url(#pattern)"
           fill-opacity="1"
           id="path1" /><g
           class=""
           id="g2"
           style="fill:#c8beb7"><path
             d="m 333.78,20.188 c -39.97,0 -79.96,15.212 -110.405,45.656 -58.667,58.667 -60.796,152.72 -6.406,213.97 l -15.782,15.748 13.25,13.25 15.75,-15.78 c 61.248,54.39 155.3,52.26 213.968,-6.407 60.887,-60.886 60.888,-159.894 0,-220.78 C 413.713,35.4 373.753,20.187 333.78,20.187 Z m 0,18.562 c 35.15,0 70.285,13.44 97.158,40.313 53.745,53.745 53.744,140.6 0,194.343 -51.526,51.526 -133.46,53.643 -187.5,6.375 l 0.218,-0.217 c -2.35,-2.05 -4.668,-4.17 -6.906,-6.407 -2.207,-2.206 -4.288,-4.496 -6.313,-6.812 l -0.218,0.22 C 182.949,212.525 185.067,130.589 236.593,79.063 263.467,52.19 298.63,38.75 333.78,38.75 Z m 0,18.813 c -30.31,0 -60.63,11.6 -83.81,34.78 -46.362,46.362 -46.362,121.234 0,167.594 10.14,10.142 21.632,18.077 33.905,23.782 -24.91,-19.087 -40.97,-49.133 -40.97,-82.94 0,-15.323 3.292,-29.888 9.22,-43 -4.165,20.485 0.44,40.88 14.47,54.907 24.583,24.585 68.744,20.318 98.624,-9.562 29.88,-29.88 34.146,-74.04 9.56,-98.625 a 52.379,52.379 0 0 0 -7.655,-6.313 c 45.13,8.648 79.954,46.345 84.25,92.876 4.44,-35.07 -6.82,-71.726 -33.813,-98.72 -23.18,-23.18 -53.47,-34.78 -83.78,-34.78 z M 176.907,297.688 42.094,432.5 76.656,467.063 211.47,332.25 176.906,297.687 Z M 40,456.813 24,472.78 37.22,486 53.188,470 40,456.812 Z"
             fill="#ffffff"
             fill-opacity="1"
             id="path2"
             style="fill:#c8beb7" /></g></g></g></g></svg>
