<?xml version="1.0" encoding="UTF-8" standalone="no"?>
<!-- Created with Inkscape (http://www.inkscape.org/) -->

<svg
   width="483.211mm"
   height="60.528mm"
   viewBox="0 0 483.21099 60.528"
   version="1.1"
   id="svg1"
   xml:space="preserve"
   inkscape:export-filename="Stabilize.svg"
   inkscape:export-xdpi="96"
   inkscape:export-ydpi="96"
   sodipodi:docname="Shutdown.svg"
   inkscape:version="1.4.2 (f4327f4, 2025-05-13)"
   xmlns:inkscape="http://www.inkscape.org/namespaces/inkscape"
   xmlns:sodipodi="http://sodipodi.sourceforge.net/DTD/sodipodi-0.dtd"
   xmlns="http://www.w3.org/2000/svg"
   xmlns:svg="http://www.w3.org/2000/svg"><sodipodi:namedview
     id="namedview1"
     pagecolor="#ffffff"
     bordercolor="#000000"
     borderopacity="0.25"
     inkscape:showpageshadow="2"
     inkscape:pageopacity="0.0"
     inkscape:pagecheckerboard="true"
     inkscape:deskcolor="#d1d1d1"
     inkscape:document-units="mm"
     inkscape:zoom="0.32829115"
     inkscape:cx="607.69228"
     inkscape:cy="-444.72718"
     inkscape:window-width="1500"
     inkscape:window-height="1094"
     inkscape:window-x="2366"
     inkscape:window-y="39"
     inkscape:window-maximized="0"
     inkscape:current-layer="layer1" /><defs
     id="defs1"><rect
       x="398"
       y="10"
       width="1194"
       height="398"
       id="rect3" /></defs><g
     inkscape:label="Layer 1"
     inkscape:groupmode="layer"
     id="layer1"
     transform="translate(42.994079,-122.0623)"><g
       inkscape:label="Layer 1"
       id="layer1-1"
       transform="translate(58.054136,1.7935886)"
       style="fill:#808080;fill-opacity:1"><text
         xml:space="preserve"
         transform="matrix(1.0460111,0,0,1.0460111,-429.51298,123.66129)"
         id="text2"
         style="font-weight:bold;font-size:74.1972px;line-height:0.6;font-family:Arial;-inkscape-font-specification:'Arial, Bold';font-variant-caps:small-caps;letter-spacing:0px;word-spacing:0px;white-space:pre;shape-inside:url(#rect3);display:inline;fill:#008080;fill-opacity:1;stroke:#ffffff;stroke-width:0.0377953;stroke-miterlimit:3.3"><tspan
           x="398"
           y="52.719365"
           id="tspan1">Shutdown</tspan></text></g><path
       d="m 40.376828,135.23498 -40.744025,-10.48256 -40.744018,10.48256 v 35.14734 l 40.744018,10.48254 40.744025,-10.48254 z m -44.4381524,-3.4942 h 7.3882548 v 21.06786 h -7.3882548 z m -3.6941187,5.03573 v 8.2216 q -1.7384138,1.43878 -2.7162659,3.44281 -0.977861,2.00402 -0.977861,4.36772 0,4.41912 3.2052009,7.45083 3.2051923,3.03171 7.8771721,3.03171 4.6719797,0 7.8771821,-3.03171 3.2051929,-3.03171 3.2051929,-7.45083 0,-2.3637 -0.9778524,-4.36772 -0.9778607,-2.00403 -2.716275,-3.44281 v -8.2216 q 4.8892864,2.05542 8.0401584,6.37174 3.150872,4.31635 3.150872,9.66039 0,7.1939 -5.486861,12.38379 -5.4868623,5.18989 -13.092417,5.18989 -7.605553,0 -13.092408,-5.18989 -5.486862,-5.18989 -5.486862,-12.38379 0,-5.34404 3.150864,-9.66039 3.150872,-4.31632 8.0401599,-6.37174 z"
       id="path2"
       inkscape:connector-curvature="0"
       style="fill:#008080;stroke-width:0.10567" /></g></svg>
