<?xml version="1.0" encoding="UTF-8" standalone="no"?>
<!-- Created with Inkscape (http://www.inkscape.org/) -->

<svg
   width="436.98257mm"
   height="67.977028mm"
   viewBox="0 0 436.98258 67.977028"
   version="1.1"
   id="svg1"
   xml:space="preserve"
   inkscape:export-filename="Stabilize.svg"
   inkscape:export-xdpi="96"
   inkscape:export-ydpi="96"
   sodipodi:docname="Teleport.svg"
   inkscape:version="1.4.2 (f4327f4, 2025-05-13)"
   xmlns:inkscape="http://www.inkscape.org/namespaces/inkscape"
   xmlns:sodipodi="http://sodipodi.sourceforge.net/DTD/sodipodi-0.dtd"
   xmlns="http://www.w3.org/2000/svg"
   xmlns:svg="http://www.w3.org/2000/svg"><sodipodi:namedview
     id="namedview1"
     pagecolor="#ffffff"
     bordercolor="#000000"
     borderopacity="0.25"
     inkscape:showpageshadow="2"
     inkscape:pageopacity="0.0"
     inkscape:pagecheckerboard="true"
     inkscape:deskcolor="#d1d1d1"
     inkscape:document-units="mm"
     inkscape:zoom="0.32829115"
     inkscape:cx="525.44822"
     inkscape:cy="137.07345"
     inkscape:window-width="1500"
     inkscape:window-height="1094"
     inkscape:window-x="2729"
     inkscape:window-y="56"
     inkscape:window-maximized="0"
     inkscape:current-layer="g7"><inkscape:page
       x="0"
       y="0"
       width="436.98257"
       height="67.977028"
       id="page4"
       margin="0"
       bleed="0" /></sodipodi:namedview><defs
     id="defs1"><rect
       x="1098.4897"
       y="-318.7774"
       width="8.6156054"
       height="17.231213"
       id="rect7" /><rect
       x="-825.48676"
       y="176.67244"
       width="344.20667"
       height="39.598995"
       id="rect4" /><rect
       x="103.38727"
       y="-1068.3351"
       width="616.01581"
       height="818.48254"
       id="rect1" /><rect
       x="398"
       y="10"
       width="1194"
       height="398"
       id="rect3" /></defs><g
     inkscape:label="Layer 1"
     inkscape:groupmode="layer"
     id="layer1"
     transform="translate(42.994079,-120.25485)"><g
       inkscape:label="Layer 1"
       id="layer1-1"
       transform="translate(43.806975,1.7935886)"
       style="fill:#ff4d00;fill-opacity:1"><text
         xml:space="preserve"
         transform="matrix(1.0460111,0,0,1.0460111,-426.02944,125.28157)"
         id="text2"
         style="font-weight:bold;font-size:74.1972px;line-height:0.6;font-family:Arial;-inkscape-font-specification:'Arial, Bold';font-variant-caps:small-caps;letter-spacing:0px;word-spacing:0px;white-space:pre;shape-inside:url(#rect3);display:inline;fill:#dbe3e2;fill-opacity:1;stroke:#ffffff;stroke-width:0.0377953;stroke-miterlimit:3.3"><tspan
           x="398"
           y="52.719365"
           id="tspan3">Teleport</tspan></text><text
         xml:space="preserve"
         transform="matrix(0.26458333,0,0,0.26458333,-86.801054,120.26871)"
         id="text1"
         style="text-align:start;writing-mode:lr-tb;direction:ltr;white-space:pre;shape-inside:url(#rect1);display:inline;fill:#ff4d00;fill-opacity:1;stroke:#ffffff;stroke-width:0.445984" /><text
         xml:space="preserve"
         transform="matrix(0.26458333,0,0,0.26458333,-86.801054,120.26871)"
         id="text3"
         style="text-align:start;writing-mode:lr-tb;direction:ltr;white-space:pre;shape-inside:url(#rect4);display:inline;fill:#6c5d53;fill-opacity:1;stroke:#ffffff;stroke-width:0.445984" /><g
         id="g7"
         transform="matrix(0.15124786,0,0,0.13629387,-87.541393,118.92253)"><path
           d="M 0,0 H 512 V 512 H 0 Z"
           fill="url(#pattern)"
           fill-opacity="1"
           id="path1" /><g
           class=""
           id="g2"
           style="fill:#dbe3e2"><path
             d="m 249.334,22.717 c -18.64,2.424 -35.677,23.574 -37.043,51.49 v 0.02 a 74.612,74.612 0 0 0 -0.097,3.59 c 0,16.362 5.658,30.827 13.942,40.818 l 10.127,12.213 -15.592,2.933 c -10.75,2.025 -18.622,7.702 -25.373,16.978 -2.285,3.14 -4.384,6.707 -6.31,10.62 -57.54,-6.44 -97.91,-21.06 -97.91,-37.952 0,-17.363 42.647,-31.983 102.75,-37.97 a 90.295,90.295 0 0 1 -0.323,-7.636 v -0.002 c 0,-0.84 0.024,-1.674 0.047,-2.51 -96.43,6.77 -167.298,29.15 -167.3,55.71 -0.002,25.33 64.462,46.86 154.074,54.67 -0.19,0.742 -0.394,1.465 -0.576,2.216 -2.36,9.72 -4.05,20.22 -5.268,31.03 -0.01,0 -0.02,0 -0.03,0.002 -0.418,3.653 -0.78,7.34 -1.095,11.046 l 0.05,-0.005 c -1.316,15.777 -1.772,31.88 -1.893,46.95 h 35.894 l 2.115,28.4 c -68.24,-4.994 -118.444,-21.004 -118.444,-39.843 0,-13.243 24.83,-24.89 63.27,-32.33 0.3,-4.056 0.66,-8.115 1.076,-12.162 -76.42,9.353 -129.17,29.168 -129.172,52.086 -0.002,28.17 79.71,51.643 185.098,56.768 l 5.94,79.77 c 10.5,2.648 24.84,4.162 39.017,4.068 13.79,-0.092 27.235,-1.71 36.45,-4 l 5.263,-79.846 c 105.308,-5.14 184.935,-28.605 184.935,-56.76 0,-23.013 -53.196,-42.895 -130.13,-52.2 0.304,4.02 0.557,8.047 0.755,12.07 38.883,7.43 63.965,19.17 63.965,32.536 0,18.84 -49.804,34.85 -117.908,39.844 l 1.87,-28.402 h 34.18 c -0.012,-15.113 -0.127,-31.27 -1.033,-47.094 0.01,0 0.02,0.002 0.032,0.004 a 406.307,406.307 0 0 0 -0.782,-10.986 l -0.02,-0.002 c -0.94,-11.157 -2.367,-21.984 -4.546,-31.967 -0.09,-0.405 -0.184,-0.803 -0.275,-1.206 89.518,-7.826 153.893,-29.344 153.893,-54.656 0,-26.787 -72.076,-49.332 -169.77,-55.887 0.025,0.895 0.053,1.788 0.053,2.688 0,2.5 -0.104,4.97 -0.304,7.407 61.19,5.836 104.61,20.61 104.61,38.2 0,16.805 -39.633,31.355 -96.524,37.848 -2.01,-4.283 -4.26,-8.15 -6.762,-11.505 -6.83,-9.167 -15.063,-14.81 -27.14,-16.682 l -15.913,-2.47 10.037,-12.59 c 6.928,-8.69 11.912,-20.715 13.057,-34.268 h 0.002 c 0.163,-1.95 0.25,-3.93 0.25,-5.938 0,-0.77 -0.022,-1.532 -0.048,-2.29 -0.015,-0.48 -0.033,-0.958 -0.057,-1.434 h -0.002 c -1.48,-29.745 -20.507,-51.3 -41.076,-51.3 -2.528,0 -3.966,-0.087 -4.03,-0.08 h -0.003 z M 194.54,355.822 c -97.11,6.655 -168.573,29.11 -168.573,55.8 0,31.932 102.243,57.815 228.367,57.815 126.124,0 228.366,-25.882 228.366,-57.814 0,-26.608 -71.02,-49.004 -167.67,-55.736 l -0.655,9.93 c 60.363,6.055 103.074,20.956 103.074,38.394 0,22.81 -73.032,41.298 -163.12,41.298 -90.088,0 -163.12,-18.49 -163.12,-41.297 0,-17.533 43.18,-32.502 104.07,-38.493 l -0.74,-9.895 z"
             fill="#ffffff"
             fill-opacity="1"
             id="path2"
             style="fill:#dbe3e2" /></g></g><text
         xml:space="preserve"
         transform="matrix(0.26458333,0,0,0.26458333,-86.801054,118.46126)"
         id="text7"
         style="text-align:start;writing-mode:lr-tb;direction:ltr;white-space:pre;shape-inside:url(#rect7);fill:#939dac;fill-opacity:1;stroke:#ffffff;stroke-width:0.445984" /></g></g></svg>
