<?xml version="1.0" encoding="UTF-8" standalone="no"?>
<!-- Created with Inkscape (http://www.inkscape.org/) -->

<svg
   width="320.29297mm"
   height="68.310867mm"
   viewBox="0 0 320.29297 68.310867"
   version="1.1"
   id="svg1"
   xml:space="preserve"
   inkscape:export-filename="Stabilize.svg"
   inkscape:export-xdpi="96"
   inkscape:export-ydpi="96"
   sodipodi:docname="Ammo.svg"
   inkscape:version="1.4.2 (f4327f4, 2025-05-13)"
   xmlns:inkscape="http://www.inkscape.org/namespaces/inkscape"
   xmlns:sodipodi="http://sodipodi.sourceforge.net/DTD/sodipodi-0.dtd"
   xmlns="http://www.w3.org/2000/svg"
   xmlns:svg="http://www.w3.org/2000/svg"><sodipodi:namedview
     id="namedview1"
     pagecolor="#ffffff"
     bordercolor="#000000"
     borderopacity="0.25"
     inkscape:showpageshadow="2"
     inkscape:pageopacity="0.0"
     inkscape:pagecheckerboard="true"
     inkscape:deskcolor="#d1d1d1"
     inkscape:document-units="mm"
     inkscape:zoom="0.32829115"
     inkscape:cx="1025.0048"
     inkscape:cy="134.02737"
     inkscape:window-width="1500"
     inkscape:window-height="1094"
     inkscape:window-x="2729"
     inkscape:window-y="56"
     inkscape:window-maximized="0"
     inkscape:current-layer="layer1-1"><inkscape:page
       x="0"
       y="0"
       width="320.29297"
       height="68.310867"
       id="page4"
       margin="0"
       bleed="0" /><inkscape:page
       x="-93.461372"
       y="-423.99551"
       width="0"
       height="0"
       id="page11"
       margin="0"
       bleed="0" /><inkscape:page
       x="39.892052"
       y="-94.601143"
       width="0"
       height="6.8386369"
       id="page12"
       margin="0"
       bleed="0" /></sodipodi:namedview><defs
     id="defs1"><rect
       x="564.3222"
       y="-805.55914"
       width="60.309238"
       height="77.540451"
       id="rect12" /><rect
       x="-158.39598"
       y="-1434.7021"
       width="3.0460765"
       height="12.184307"
       id="rect9" /><rect
       x="335.06842"
       y="-271.10083"
       width="3.0460765"
       height="18.276461"
       id="rect8" /><rect
       x="1098.4897"
       y="-318.7774"
       width="8.6156054"
       height="17.231213"
       id="rect7" /><rect
       x="-825.48676"
       y="176.67244"
       width="344.20667"
       height="39.598995"
       id="rect4" /><rect
       x="103.38727"
       y="-1068.3351"
       width="616.01581"
       height="818.48254"
       id="rect1" /><rect
       x="398"
       y="10"
       width="1194"
       height="398"
       id="rect3" /></defs><g
     inkscape:label="Layer 1"
     inkscape:groupmode="layer"
     id="layer1"
     transform="translate(42.994079,-119.92101)"><g
       inkscape:label="Layer 1"
       id="layer1-1"
       transform="translate(43.806975,1.7935886)"
       style="fill:#ff4d00;fill-opacity:1"><text
         xml:space="preserve"
         transform="matrix(1.0460111,0,0,1.0460111,-414.35167,124.97638)"
         id="text2"
         style="font-weight:bold;font-size:74.1972px;line-height:0.6;font-family:Arial;-inkscape-font-specification:'Arial, Bold';font-variant-caps:small-caps;letter-spacing:0px;word-spacing:0px;white-space:pre;shape-inside:url(#rect3);display:inline;fill:#4d4d4d;fill-opacity:1;stroke:#ffffff;stroke-width:0.0377953;stroke-miterlimit:3.3"><tspan
           x="398"
           y="52.719365"
           id="tspan3">Ammo</tspan></text><text
         xml:space="preserve"
         transform="matrix(0.26458333,0,0,0.26458333,-86.801054,120.26871)"
         id="text1"
         style="text-align:start;writing-mode:lr-tb;direction:ltr;white-space:pre;shape-inside:url(#rect1);display:inline;fill:#ff4d00;fill-opacity:1;stroke:#ffffff;stroke-width:0.445984" /><text
         xml:space="preserve"
         transform="matrix(0.26458333,0,0,0.26458333,-86.801054,120.26871)"
         id="text3"
         style="text-align:start;writing-mode:lr-tb;direction:ltr;white-space:pre;shape-inside:url(#rect4);display:inline;fill:#6c5d53;fill-opacity:1;stroke:#ffffff;stroke-width:0.445984" /><text
         xml:space="preserve"
         transform="matrix(0.26458333,0,0,0.26458333,-86.801054,118.46126)"
         id="text7"
         style="text-align:start;writing-mode:lr-tb;direction:ltr;white-space:pre;shape-inside:url(#rect7);display:inline;fill:#939dac;fill-opacity:1;stroke:#ffffff;stroke-width:0.445984" /><text
         xml:space="preserve"
         transform="matrix(0.26458333,0,0,0.26458333,-86.801054,118.46126)"
         id="text8"
         style="text-align:start;writing-mode:lr-tb;direction:ltr;white-space:pre;shape-inside:url(#rect8);display:inline;fill:#dbe3e2;fill-opacity:1;stroke:#ffffff;stroke-width:0.445984" /><text
         xml:space="preserve"
         transform="matrix(0.26458333,0,0,0.26458333,-86.801054,118.46126)"
         id="text9"
         style="text-align:start;writing-mode:lr-tb;direction:ltr;white-space:pre;shape-inside:url(#rect9);display:inline;fill:#c8ab37;fill-opacity:1;stroke:#ffffff;stroke-width:0.445984" /><path
         fill="currentColor"
         d="m -80.043585,137.38344 q -0.866185,3.24849 0.625585,9.69906 1.49177,6.45056 5.149012,12.6691 l 0.481217,7.05386 4.908411,8.26044 17.131297,-9.55984 -5.004645,-8.16762 -6.06333,-3.89819 q -3.753484,-6.21853 -8.806261,-10.72001 -5.05277,-4.50148 -8.421286,-5.3368 z m 17.035063,-9.55983 q -0.866193,3.24848 0.625577,9.74546 1.49177,6.49697 5.245261,12.62269 l 6.063322,3.89819 5.004653,8.26044 11.356708,-6.31135 -4.90841,-8.26044 -6.159565,-3.89818 q -3.657249,-6.12572 -8.758143,-10.6272 -5.100888,-4.50148 -8.469403,-5.42961 z m 17.131297,-9.46703 q -0.962428,3.24849 0.57746,9.74546 1.539894,6.49698 5.197136,12.6227 l 6.159572,3.89819 4.90841,8.26044 11.356703,-6.40417 -4.908405,-8.16762 -6.159571,-3.89818 q -3.657242,-6.21854 -8.71002,-10.72002 -5.052769,-4.50147 -8.421285,-5.3368 z m -19.729869,62.18534 3.272273,5.47602 17.131305,-9.46702 -3.272274,-5.56884 z m 22.809658,-12.71551 3.272267,5.47602 11.356708,-6.31135 -3.272273,-5.47602 z m 17.035056,-9.46702 3.272273,5.47602 11.356705,-6.31135 -3.272272,-5.47602 z"
         id="path216"
         style="fill:#4d4d4d;stroke-width:0.0945133" /><text
         xml:space="preserve"
         transform="matrix(0.26458333,0,0,0.26458333,-86.801054,118.12742)"
         id="text12"
         style="text-align:start;writing-mode:lr-tb;direction:ltr;white-space:pre;shape-inside:url(#rect12);fill:#87de87;fill-opacity:1;stroke:#ffffff;stroke-width:0.445984" /></g></g></svg>
