<?xml version="1.0" encoding="UTF-8" standalone="no"?>
<!-- Created with Inkscape (http://www.inkscape.org/) -->

<svg
   width="344.2114mm"
   height="57.527828mm"
   viewBox="0 0 344.21139 57.527828"
   version="1.1"
   id="svg1"
   xml:space="preserve"
   inkscape:export-filename="Stabilize.svg"
   inkscape:export-xdpi="96"
   inkscape:export-ydpi="96"
   sodipodi:docname="Boost.svg"
   inkscape:version="1.4.2 (f4327f4, 2025-05-13)"
   xmlns:inkscape="http://www.inkscape.org/namespaces/inkscape"
   xmlns:sodipodi="http://sodipodi.sourceforge.net/DTD/sodipodi-0.dtd"
   xmlns="http://www.w3.org/2000/svg"
   xmlns:svg="http://www.w3.org/2000/svg"><sodipodi:namedview
     id="namedview1"
     pagecolor="#ffffff"
     bordercolor="#000000"
     borderopacity="0.25"
     inkscape:showpageshadow="2"
     inkscape:pageopacity="0.0"
     inkscape:pagecheckerboard="true"
     inkscape:deskcolor="#d1d1d1"
     inkscape:document-units="mm"
     inkscape:zoom="0.4642738"
     inkscape:cx="599.86154"
     inkscape:cy="114.15677"
     inkscape:window-width="1500"
     inkscape:window-height="1094"
     inkscape:window-x="2366"
     inkscape:window-y="39"
     inkscape:window-maximized="0"
     inkscape:current-layer="layer1" /><defs
     id="defs1"><rect
       x="398"
       y="10"
       width="1194"
       height="398"
       id="rect3" /></defs><g
     inkscape:label="Layer 1"
     inkscape:groupmode="layer"
     id="layer1"
     transform="translate(42.994079,-122.0623)"><g
       inkscape:label="Layer 1"
       id="layer1-1"
       transform="translate(29.824509,-0.22126415)"
       style="fill:#009cff;fill-opacity:1"><text
         xml:space="preserve"
         transform="matrix(1.0460111,0,0,1.0460111,-410.70673,123.66129)"
         id="text2"
         style="font-weight:bold;font-size:74.1972px;line-height:0.6;font-family:Arial;-inkscape-font-specification:'Arial, Bold';font-variant-caps:small-caps;letter-spacing:0px;word-spacing:0px;white-space:pre;shape-inside:url(#rect3);fill:#009cff;fill-opacity:1;stroke:#ffffff;stroke-width:0.0377953;stroke-miterlimit:3.3"><tspan
           x="398"
           y="52.719365"
           id="tspan1">Boost</tspan></text></g><g
       id="g1"
       transform="matrix(0.13435538,0,0,0.12656396,-34.35788,116.98222)"><path
         d="M 0,0 H 512 V 512 H 0 Z"
         fill="url(#pattern)"
         fill-opacity="1"
         id="path1" /><g
         class=""
         id="g2"
         style="fill:#009cff;fill-opacity:1"
         transform="matrix(1.0891494,0,0,1.0558045,-70.540634,-3.0290688)"><path
           d="m 256,54.28 c -124.603,0 -226,101.398 -226,226 0,47.864 14.975,92.293 40.465,128.876 l 29.79,-19.86 A 188.963,188.963 0 0 1 67.559,304.719 H 96 v -18 H 66.115 c -0.07,-2.14 -0.115,-4.284 -0.115,-6.44 0,-45.378 15.816,-86.97 42.236,-119.598 l 17.4,17.4 12.727,-12.727 -18.133,-18.132 C 152.735,114.057 197.335,92.8 247,90.498 v 29.22 h 18 V 90.5 c 49.665,2.302 94.265,23.56 126.77,56.725 l -18.133,18.132 12.726,12.727 17.4,-17.4 c 26.42,32.63 42.237,74.22 42.237,119.6 0,2.154 -0.044,4.3 -0.115,6.437 H 416 v 18 h 28.44 a 188.957,188.957 0 0 1 -32.694,84.575 l 29.79,19.86 C 467.025,372.574 482,328.146 482,280.282 c 0,-124.602 -101.397,-226 -226,-226 z m 15.83,66.23 a 144,160 0 0 1 74.608,100.062 l 49.966,-17.568 a 160,160 0 0 0 -4.3,-7.012 l -5.135,5.153 -30.368,-30.29 -5.76,-5.746 7.85,-7.874 a 160,160 0 0 0 -86.862,-36.726 z m 156.15,89.844 -175.332,60.6 C 240.505,272.618 231,283.155 231,295.72 c 0,13.7 11.3,25 25,25 6.77,0 12.95,-2.764 17.473,-7.208 z m -16.513,32.322 -60.713,40.72 a 144,160 0 0 1 -56.6,108.323 h 76.057 a 160,160 0 0 0 39.763,-68.572 H 398.48 v -52.515 h 17.022 a 160,160 0 0 0 -4.035,-27.957 z M 128,421.72 v 36 h 256 v -36 z"
           fill="#ffffff"
           fill-opacity="1"
           id="path2"
           style="fill:#009cff;fill-opacity:1" /></g></g></g></svg>
