<?xml version="1.0" encoding="UTF-8" standalone="no"?>
<!-- Created with Inkscape (http://www.inkscape.org/) -->

<svg
   width="560.98706mm"
   height="71.20079mm"
   viewBox="0 0 560.98705 71.200791"
   version="1.1"
   id="svg1"
   xml:space="preserve"
   inkscape:export-filename="Stabilize.svg"
   inkscape:export-xdpi="96"
   inkscape:export-ydpi="96"
   sodipodi:docname="CorePower.svg"
   inkscape:version="1.4.2 (f4327f4, 2025-05-13)"
   xmlns:inkscape="http://www.inkscape.org/namespaces/inkscape"
   xmlns:sodipodi="http://sodipodi.sourceforge.net/DTD/sodipodi-0.dtd"
   xmlns="http://www.w3.org/2000/svg"
   xmlns:svg="http://www.w3.org/2000/svg"><sodipodi:namedview
     id="namedview1"
     pagecolor="#ffffff"
     bordercolor="#000000"
     borderopacity="0.25"
     inkscape:showpageshadow="2"
     inkscape:pageopacity="0.0"
     inkscape:pagecheckerboard="true"
     inkscape:deskcolor="#d1d1d1"
     inkscape:document-units="mm"
     inkscape:zoom="0.32829115"
     inkscape:cx="1025.0048"
     inkscape:cy="271.10082"
     inkscape:window-width="1500"
     inkscape:window-height="1094"
     inkscape:window-x="2729"
     inkscape:window-y="56"
     inkscape:window-maximized="0"
     inkscape:current-layer="layer1-1"><inkscape:page
       x="0"
       y="5.324673e-08"
       width="560.98706"
       height="71.20079"
       id="page4"
       margin="0"
       bleed="0" /></sodipodi:namedview><defs
     id="defs1"><rect
       x="-158.39598"
       y="-1434.7021"
       width="3.0460765"
       height="12.184307"
       id="rect9" /><rect
       x="335.06842"
       y="-271.10083"
       width="3.0460765"
       height="18.276461"
       id="rect8" /><rect
       x="1098.4897"
       y="-318.7774"
       width="8.6156054"
       height="17.231213"
       id="rect7" /><rect
       x="-825.48676"
       y="176.67244"
       width="344.20667"
       height="39.598995"
       id="rect4" /><rect
       x="103.38727"
       y="-1068.3351"
       width="616.01581"
       height="818.48254"
       id="rect1" /><rect
       x="398"
       y="10"
       width="1194"
       height="398"
       id="rect3" /></defs><g
     inkscape:label="Layer 1"
     inkscape:groupmode="layer"
     id="layer1"
     transform="translate(42.994079,-117.03108)"><g
       inkscape:label="Layer 1"
       id="layer1-1"
       transform="translate(43.806975,1.7935886)"
       style="fill:#ff4d00;fill-opacity:1"><text
         xml:space="preserve"
         transform="matrix(1.0460111,0,0,1.0460111,-423.62,125.78232)"
         id="text2"
         style="font-weight:bold;font-size:74.1972px;line-height:0.6;font-family:Arial;-inkscape-font-specification:'Arial, Bold';font-variant-caps:small-caps;letter-spacing:0px;word-spacing:0px;white-space:pre;shape-inside:url(#rect3);display:inline;fill:#006680;fill-opacity:1;stroke:#ffffff;stroke-width:0.0377953;stroke-miterlimit:3.3"><tspan
           x="398"
           y="52.719365"
           id="tspan3"><tspan
             style="fill:#ff5e00"
             id="tspan2">Core Power</tspan></tspan></text><text
         xml:space="preserve"
         transform="matrix(0.26458333,0,0,0.26458333,-86.801054,120.26871)"
         id="text1"
         style="text-align:start;writing-mode:lr-tb;direction:ltr;white-space:pre;shape-inside:url(#rect1);display:inline;fill:#ff4d00;fill-opacity:1;stroke:#ffffff;stroke-width:0.445984" /><text
         xml:space="preserve"
         transform="matrix(0.26458333,0,0,0.26458333,-86.801054,120.26871)"
         id="text3"
         style="text-align:start;writing-mode:lr-tb;direction:ltr;white-space:pre;shape-inside:url(#rect4);display:inline;fill:#6c5d53;fill-opacity:1;stroke:#ffffff;stroke-width:0.445984" /><text
         xml:space="preserve"
         transform="matrix(0.26458333,0,0,0.26458333,-86.801054,118.46126)"
         id="text7"
         style="text-align:start;writing-mode:lr-tb;direction:ltr;white-space:pre;shape-inside:url(#rect7);display:inline;fill:#939dac;fill-opacity:1;stroke:#ffffff;stroke-width:0.445984" /><text
         xml:space="preserve"
         transform="matrix(0.26458333,0,0,0.26458333,-86.801054,118.46126)"
         id="text8"
         style="text-align:start;writing-mode:lr-tb;direction:ltr;white-space:pre;shape-inside:url(#rect8);display:inline;fill:#dbe3e2;fill-opacity:1;stroke:#ffffff;stroke-width:0.445984" /><text
         xml:space="preserve"
         transform="matrix(0.26458333,0,0,0.26458333,-86.801054,118.46126)"
         id="text9"
         style="text-align:start;writing-mode:lr-tb;direction:ltr;white-space:pre;shape-inside:url(#rect9);display:inline;fill:#c8ab37;fill-opacity:1;stroke:#ffffff;stroke-width:0.445984" /><path
         style="display:inline;fill:#ff5e00;fill-opacity:1;stroke-width:1.45095"
         d="m -74.164372,122.9659 c 0,0 2.9558,-0.19589 6.378888,-0.14734 3.901023,0.055 6.276884,-0.0655 6.366074,-0.32272 0.07809,-0.22511 0.11214,-1.6653 0.07515,-3.19883 -0.0484,-1.99944 0.106191,-2.82841 0.546915,-2.93031 0.832178,-0.19251 20.613651,-0.0763 21.018118,0.12367 0.176442,0.0867 0.319162,1.54153 0.317433,3.23148 -0.0016,1.69005 -0.122866,3.13898 0.0311,3.21992 0.15402,0.0809 3.148242,0.14372 6.355327,0.14009 3.207139,-0.005 6.171206,0.16304 6.171206,0.16304 l 0.03917,62.25062 -47.346598,-0.21651 c 0.01536,-20.77104 0.03141,-41.54207 0.04723,-62.31311 z m 38.927149,45.32239 c -0.0054,-0.22705 -5.338735,-1.28518 -11.372775,-2.60718 -6.034109,-1.32194 -11.398934,-2.61346 -11.398934,-2.61346 0.728825,-3.49186 2.249017,-10.2722 2.249017,-10.2722 l -10.656033,-1.16323 c 0,0 -0.299789,26.40671 -0.143744,26.48888 0.22075,0.11594 31.147726,0.91196 31.161826,0.32966 0.167259,-6.91695 0.160504,-10.16247 0.160504,-10.16247 z m 0.763028,-30.81787 c 0.106997,-10.30669 0.04351,-7.78195 -0.141045,-7.86354 -0.450349,-0.19903 -31.236118,-0.34893 -31.357789,-0.15266 -0.156719,0.25294 -0.275606,7.81178 -0.120779,7.87968 0.07863,0.0348 5.62212,0.95094 12.319682,2.03673 l 12.177388,1.97423 -0.889701,3.3354 c -0.489337,1.83446 -1.297596,4.86407 -1.796294,6.73233 l -0.906749,3.3969 2.963169,0.44849 c 1.629772,0.24677 3.954531,0.61307 5.166124,0.81432 1.211601,0.2012 2.245263,0.31424 2.297172,0.2514 0.05134,-0.0625 0.182119,-8.54694 0.288985,-18.85354 z"
         id="path17"
         inkscape:label="Core Logo"
         sodipodi:nodetypes="cssssccsscccccscccssccscsscsscsccccsc" /></g></g></svg>
