<?xml version="1.0" encoding="UTF-8" standalone="no"?>
<!-- Created with Inkscape (http://www.inkscape.org/) -->

<svg
   width="482.92123mm"
   height="67.977028mm"
   viewBox="0 0 482.92124 67.977028"
   version="1.1"
   id="svg1"
   xml:space="preserve"
   inkscape:export-filename="Stabilize.svg"
   inkscape:export-xdpi="96"
   inkscape:export-ydpi="96"
   sodipodi:docname="Disengage.svg"
   inkscape:version="1.4.2 (f4327f4, 2025-05-13)"
   xmlns:inkscape="http://www.inkscape.org/namespaces/inkscape"
   xmlns:sodipodi="http://sodipodi.sourceforge.net/DTD/sodipodi-0.dtd"
   xmlns="http://www.w3.org/2000/svg"
   xmlns:svg="http://www.w3.org/2000/svg"><sodipodi:namedview
     id="namedview1"
     pagecolor="#ffffff"
     bordercolor="#000000"
     borderopacity="0.25"
     inkscape:showpageshadow="2"
     inkscape:pageopacity="0.0"
     inkscape:pagecheckerboard="true"
     inkscape:deskcolor="#d1d1d1"
     inkscape:document-units="mm"
     inkscape:zoom="0.32829115"
     inkscape:cx="1000.6362"
     inkscape:cy="-694.50547"
     inkscape:window-width="1500"
     inkscape:window-height="1094"
     inkscape:window-x="2729"
     inkscape:window-y="56"
     inkscape:window-maximized="0"
     inkscape:current-layer="layer1-1"><inkscape:page
       x="0"
       y="0"
       width="482.92123"
       height="67.977028"
       id="page4"
       margin="0"
       bleed="0" /></sodipodi:namedview><defs
     id="defs1"><rect
       x="-158.39598"
       y="-1434.7021"
       width="3.0460765"
       height="12.184307"
       id="rect9" /><rect
       x="335.06842"
       y="-271.10083"
       width="3.0460765"
       height="18.276461"
       id="rect8" /><rect
       x="1098.4897"
       y="-318.7774"
       width="8.6156054"
       height="17.231213"
       id="rect7" /><rect
       x="-825.48676"
       y="176.67244"
       width="344.20667"
       height="39.598995"
       id="rect4" /><rect
       x="103.38727"
       y="-1068.3351"
       width="616.01581"
       height="818.48254"
       id="rect1" /><rect
       x="398"
       y="10"
       width="1194"
       height="398"
       id="rect3" /></defs><g
     inkscape:label="Layer 1"
     inkscape:groupmode="layer"
     id="layer1"
     transform="translate(42.994079,-120.25485)"><g
       inkscape:label="Layer 1"
       id="layer1-1"
       transform="translate(43.806975,1.7935886)"
       style="fill:#ff4d00;fill-opacity:1"><text
         xml:space="preserve"
         transform="matrix(1.0460111,0,0,1.0460111,-431.67941,126.18529)"
         id="text2"
         style="font-weight:bold;font-size:74.1972px;line-height:0.6;font-family:Arial;-inkscape-font-specification:'Arial, Bold';font-variant-caps:small-caps;letter-spacing:0px;word-spacing:0px;white-space:pre;shape-inside:url(#rect3);display:inline;fill:#d35f5f;fill-opacity:1;stroke:#ffffff;stroke-width:0.0377953;stroke-miterlimit:3.3"><tspan
           x="398"
           y="52.719365"
           id="tspan3">Disengage</tspan></text><text
         xml:space="preserve"
         transform="matrix(0.26458333,0,0,0.26458333,-86.801054,120.26871)"
         id="text1"
         style="text-align:start;writing-mode:lr-tb;direction:ltr;white-space:pre;shape-inside:url(#rect1);display:inline;fill:#ff4d00;fill-opacity:1;stroke:#ffffff;stroke-width:0.445984" /><text
         xml:space="preserve"
         transform="matrix(0.26458333,0,0,0.26458333,-86.801054,120.26871)"
         id="text3"
         style="text-align:start;writing-mode:lr-tb;direction:ltr;white-space:pre;shape-inside:url(#rect4);display:inline;fill:#6c5d53;fill-opacity:1;stroke:#ffffff;stroke-width:0.445984" /><text
         xml:space="preserve"
         transform="matrix(0.26458333,0,0,0.26458333,-86.801054,118.46126)"
         id="text7"
         style="text-align:start;writing-mode:lr-tb;direction:ltr;white-space:pre;shape-inside:url(#rect7);display:inline;fill:#939dac;fill-opacity:1;stroke:#ffffff;stroke-width:0.445984" /><text
         xml:space="preserve"
         transform="matrix(0.26458333,0,0,0.26458333,-86.801054,118.46126)"
         id="text8"
         style="text-align:start;writing-mode:lr-tb;direction:ltr;white-space:pre;shape-inside:url(#rect8);display:inline;fill:#dbe3e2;fill-opacity:1;stroke:#ffffff;stroke-width:0.445984" /><g
         id="g9"
         transform="matrix(0.13546843,0,0,0.1271205,-86.356612,120.11829)"><path
           d="M 0,0 H 512 V 512 H 0 Z"
           fill="url(#pattern)"
           fill-opacity="1"
           id="path1-15" /><g
           class=""
           id="g2"
           style="fill:#d35f5f"><path
             d="m 396.082,17.326 c -0.166,-0.025 -1.922,0.108 -4.977,0.108 -21.975,0 -42.158,18.904 -49.437,46.595 l 75.713,12.61 -78.526,13.085 c 0.564,16.248 5.55,30.99 13.062,42.367 l 54.39,9.603 -41.277,7.29 0.484,0.607 -15.91,2.47 c -15.262,2.366 -25.866,9.63 -34.46,21.165 -2.534,3.4 -4.848,7.198 -6.962,11.328 l 90.798,13.2 -100.976,14.684 a 197.818,197.818 0 0 0 -1.627,6.874 c -1.662,7.613 -2.953,15.622 -3.982,23.854 l 115.275,14.107 -117.81,14.418 c -0.525,9.083 -0.84,18.236 -1.022,27.31 l 114.07,16.407 -113.304,16.3 h 40.826 l 2.144,32.532 82.026,11.38 -80.54,11.173 2.512,38.14 75.582,10.897 -74.158,10.69 2.938,44.59 h 96.306 l 11.875,-159.403 h 43.983 c -0.228,-36.033 -1.914,-77.32 -10.137,-111.194 -4.462,-18.384 -10.84,-34.42 -19.314,-46.063 -8.472,-11.642 -18.583,-18.958 -32.248,-21.53 l -15.59,-2.933 10.124,-12.213 c 10.435,-12.587 17.49,-30.688 17.49,-51.127 0,-37.056 -22.084,-66.04 -47.127,-69.295 l -0.106,-0.013 -0.108,-0.016 z M 342.547,22.381 16.785,45.968 321.715,68.05 c 3.073,-17.672 10.43,-33.57 20.832,-45.67 z m -22.402,62.114 -303.362,21.965 312.28,22.612 c -5.686,-12.618 -8.96,-27.047 -8.96,-42.422 0,-0.722 0.027,-1.437 0.042,-2.156 z m -2.612,60.688 -300.75,21.777 269.96,19.546 c 3.583,-8.906 7.975,-17.144 13.415,-24.445 4.868,-6.532 10.676,-12.254 17.375,-16.878 z m -37.79,63.228 -262.96,19.04 256.407,18.569 c 1.18,-10.497 2.77,-20.808 4.927,-30.69 0.51,-2.33 1.05,-4.635 1.625,-6.918 z m -8.327,57.803 -254.633,18.436 253.225,18.336 c 0.18,-12.057 0.585,-24.438 1.408,-36.773 z m -1.562,60.605 -253.07,18.325 297.22,21.52 -1.072,-16.267 H 269.86 v -9.343 c 0,-4.62 -0.01,-9.38 -0.006,-14.235 z m 45.294,57.22 -298.365,21.601 301.227,21.81 -2.862,-43.413 z m 3.97,60.202 -302.336,21.889 305.233,22.102 -2.9,-43.992 z"
             fill="#ffffff"
             fill-opacity="1"
             id="path2"
             style="fill:#d35f5f" /></g></g><text
         xml:space="preserve"
         transform="matrix(0.26458333,0,0,0.26458333,-86.801054,118.46126)"
         id="text9"
         style="text-align:start;writing-mode:lr-tb;direction:ltr;white-space:pre;shape-inside:url(#rect9);fill:#c8ab37;fill-opacity:1;stroke:#ffffff;stroke-width:0.445984" /></g></g></svg>
