<?xml version="1.0" encoding="UTF-8" standalone="no"?>
<!-- Created with Inkscape (http://www.inkscape.org/) -->

<svg
   width="297.77982mm"
   height="69.588913mm"
   viewBox="0 0 297.77982 69.588913"
   version="1.1"
   id="svg1"
   xml:space="preserve"
   inkscape:export-filename="Stabilize.svg"
   inkscape:export-xdpi="96"
   inkscape:export-ydpi="96"
   sodipodi:docname="Eject.svg"
   inkscape:version="1.4.2 (f4327f4, 2025-05-13)"
   xmlns:inkscape="http://www.inkscape.org/namespaces/inkscape"
   xmlns:sodipodi="http://sodipodi.sourceforge.net/DTD/sodipodi-0.dtd"
   xmlns="http://www.w3.org/2000/svg"
   xmlns:svg="http://www.w3.org/2000/svg"><sodipodi:namedview
     id="namedview1"
     pagecolor="#ffffff"
     bordercolor="#000000"
     borderopacity="0.25"
     inkscape:showpageshadow="2"
     inkscape:pageopacity="0.0"
     inkscape:pagecheckerboard="true"
     inkscape:deskcolor="#d1d1d1"
     inkscape:document-units="mm"
     inkscape:zoom="0.4642738"
     inkscape:cx="483.55087"
     inkscape:cy="-19.385113"
     inkscape:window-width="1500"
     inkscape:window-height="1094"
     inkscape:window-x="2729"
     inkscape:window-y="56"
     inkscape:window-maximized="0"
     inkscape:current-layer="g6"><inkscape:page
       x="0"
       y="0"
       width="297.77982"
       height="69.588913"
       id="page4"
       margin="0"
       bleed="0" /></sodipodi:namedview><defs
     id="defs1"><rect
       x="-825.48676"
       y="176.67244"
       width="344.20667"
       height="39.598995"
       id="rect4" /><rect
       x="103.38727"
       y="-1068.3351"
       width="616.01581"
       height="818.48254"
       id="rect1" /><rect
       x="398"
       y="10"
       width="1194"
       height="398"
       id="rect3" /></defs><g
     inkscape:label="Layer 1"
     inkscape:groupmode="layer"
     id="layer1"
     transform="translate(42.994079,-118.64297)"><g
       inkscape:label="Layer 1"
       id="layer1-1"
       transform="translate(43.806975,1.7935886)"
       style="fill:#ff4d00;fill-opacity:1"><text
         xml:space="preserve"
         transform="matrix(1.0460111,0,0,1.0460111,-429.2532,126.89345)"
         id="text2"
         style="font-weight:bold;font-size:74.1972px;line-height:0.6;font-family:Arial;-inkscape-font-specification:'Arial, Bold';font-variant-caps:small-caps;letter-spacing:0px;word-spacing:0px;white-space:pre;shape-inside:url(#rect3);display:inline;fill:#c83771;fill-opacity:1;stroke:#ffffff;stroke-width:0.0377953;stroke-miterlimit:3.3"><tspan
           x="398"
           y="52.719365"
           id="tspan3">Eject</tspan></text><text
         xml:space="preserve"
         transform="matrix(0.26458333,0,0,0.26458333,-86.801054,120.26871)"
         id="text1"
         style="text-align:start;writing-mode:lr-tb;direction:ltr;white-space:pre;shape-inside:url(#rect1);display:inline;fill:#ff4d00;fill-opacity:1;stroke:#ffffff;stroke-width:0.445984" /><text
         xml:space="preserve"
         transform="matrix(0.26458333,0,0,0.26458333,-86.801054,120.26871)"
         id="text3"
         style="text-align:start;writing-mode:lr-tb;direction:ltr;white-space:pre;shape-inside:url(#rect4);display:inline;fill:#6c5d53;fill-opacity:1;stroke:#ffffff;stroke-width:0.445984" /><g
         id="g6"
         transform="matrix(0.14159026,0,0,0.13546843,-84.263604,116.22946)"><path
           d="M 0,0 H 512 V 512 H 0 Z"
           fill="url(#pattern)"
           fill-opacity="1"
           id="path1" /><g
           class=""
           id="g2"
           style="fill:#c83771"><path
             d="m 258.406,18.438 c -0.594,0.005 -1.188,0.016 -1.78,0.03 -4.582,0.54 -10.147,4.075 -16.407,12.626 -6.845,9.348 -13.726,24.012 -19.595,42.562 -11.095,35.068 -18.797,84.06 -20.875,139.156 h 115.97 c -2.074,-55.1 -9.715,-104.116 -20.75,-139.187 -5.84,-18.552 -12.682,-33.186 -19.5,-42.53 -6.38,-8.744 -12.024,-12.244 -16.658,-12.657 h -0.03 c -0.13,-0.012 -0.25,0.006 -0.376,0 z m 34.47,4.937 c 7.703,11.57 14.235,26.638 19.905,44.656 11.827,37.58 19.622,88.07 21.69,144.782 h 82.186 C 411.547,158.9 393.022,111.051 366.127,76.563 345.584,50.223 320.517,31.701 292.877,23.376 Z m -70.938,1.313 c -26.084,8.878 -49.815,26.88 -69.438,51.906 -27.044,34.492 -45.688,82.318 -50.813,136.22 H 181 C 183.07,156.091 190.923,105.579 202.813,68 208.3,50.655 214.58,36.07 221.938,24.687 Z m -55.22,10.437 C 89.632,65.053 33.103,132.255 21.814,212.813 H 82.72 c 5.16,-57.906 25.177,-109.596 55.093,-147.75 8.792,-11.214 18.473,-21.27 28.906,-29.938 z M 357,39.405 c 8.533,7.657 16.522,16.26 23.875,25.69 29.76,38.16 49.604,89.83 54.75,147.718 h 55.188 C 480.065,135.882 428.495,71.15 357,39.405 Z M 28.844,231.5 195.47,414.094 a 62.443,62.443 0 0 0 -2.126,16.156 c 0,34.666 28.303,62.97 62.97,62.97 34.664,0 62.967,-28.304 62.967,-62.97 0,-5.585 -0.746,-10.993 -2.124,-16.156 L 483.75,231.5 H 458.47 L 308.78,395.53 a 62.929,62.929 0 0 0 -5.25,-6.81 L 398.875,231.5 H 377.03 l -87.967,145.03 a 62.78,62.78 0 0 0 -10.282,-5.06 L 315.5,231.5 h -19.313 l -35.656,135.938 a 62.638,62.638 0 0 0 -4.217,-0.157 62.7,62.7 0 0 0 -4.22,0.158 L 216.44,231.5 h -19.344 l 36.75,139.97 a 62.68,62.68 0 0 0 -10.28,5.06 L 135.596,231.5 H 113.72 l 95.374,157.22 a 63.311,63.311 0 0 0 -5.25,6.81 L 54.156,231.5 Z m 218.812,155.313 v 33.5 h -34.5 c 3.852,-16.97 17.342,-30.143 34.5,-33.5 z m 18.688,0.312 c 16.494,3.782 29.378,16.678 33.125,33.188 H 266.343 V 387.125 Z M 212.906,439 h 34.75 v 34.688 C 230.096,470.251 216.38,456.548 212.906,439 Z m 53.438,0 h 33.375 c -3.383,17.08 -16.484,30.5 -33.376,34.375 V 439 Z"
             fill="#ffffff"
             fill-opacity="1"
             id="path2"
             style="fill:#c83771" /></g></g></g></g></svg>
