<?xml version="1.0" encoding="UTF-8" standalone="no"?>
<!-- Created with Inkscape (http://www.inkscape.org/) -->

<svg
   width="355.211mm"
   height="60.528mm"
   viewBox="0 0 355.21099 60.528"
   version="1.1"
   id="svg1"
   xml:space="preserve"
   inkscape:export-filename="Stabilize.svg"
   inkscape:export-xdpi="96"
   inkscape:export-ydpi="96"
   sodipodi:docname="Falling.svg"
   inkscape:version="1.4.2 (f4327f4, 2025-05-13)"
   xmlns:inkscape="http://www.inkscape.org/namespaces/inkscape"
   xmlns:sodipodi="http://sodipodi.sourceforge.net/DTD/sodipodi-0.dtd"
   xmlns="http://www.w3.org/2000/svg"
   xmlns:svg="http://www.w3.org/2000/svg"><sodipodi:namedview
     id="namedview1"
     pagecolor="#ffffff"
     bordercolor="#000000"
     borderopacity="0.25"
     inkscape:showpageshadow="2"
     inkscape:pageopacity="0.0"
     inkscape:pagecheckerboard="true"
     inkscape:deskcolor="#d1d1d1"
     inkscape:document-units="mm"
     inkscape:zoom="0.65658231"
     inkscape:cx="603.88468"
     inkscape:cy="-48.737225"
     inkscape:window-width="1500"
     inkscape:window-height="1094"
     inkscape:window-x="2366"
     inkscape:window-y="39"
     inkscape:window-maximized="0"
     inkscape:current-layer="g15" /><defs
     id="defs1"><rect
       x="398"
       y="10"
       width="1194"
       height="398"
       id="rect3" /></defs><g
     inkscape:label="Layer 1"
     inkscape:groupmode="layer"
     id="layer1"
     transform="translate(42.994079,-122.0623)"><g
       inkscape:label="Layer 1"
       id="layer1-1"
       transform="translate(29.79587,1.5086454)"
       style="fill:#ffff00;fill-opacity:1"><text
         xml:space="preserve"
         transform="matrix(1.0460111,0,0,1.0460111,-429.51298,123.66129)"
         id="text2"
         style="font-weight:bold;font-size:74.1972px;line-height:0.6;font-family:Arial;-inkscape-font-specification:'Arial, Bold';font-variant-caps:small-caps;letter-spacing:0px;word-spacing:0px;white-space:pre;shape-inside:url(#rect3);display:inline;fill:#ffff00;fill-opacity:1;stroke:#ffffff;stroke-width:0.0377953;stroke-miterlimit:3.3"><tspan
           x="398"
           y="52.719365"
           id="tspan1">Falling</tspan></text></g><g
       id="g15"
       transform="matrix(0.26458333,0,0,0.26458333,-113.17161,94.933756)"><path
         d="M 0,0 H 512 V 512 H 0 Z"
         fill="url(#pattern)"
         fill-opacity="1"
         id="path1" /><g
         class=""
         id="g2"
         style="fill:#ffff00"
         transform="matrix(0.4816556,0,0,0.46578843,268.73306,98.145334)"><path
           d="m 221.313,16 a 23.682,23.695 0 0 0 -23.688,23.688 v 106.406 a 23.682,23.695 0 0 0 2.156,9.72 23.682,23.695 0 0 0 3.157,13.81 l 41.75,71.626 -79,55.438 6.094,-48.625 a 23.682,23.695 0 0 0 -8.186,-20.97 l -66.28,-81.937 a 23.682,23.695 0 0 0 -33.314,-3.5 l -9.188,7.438 a 23.682,23.695 0 0 0 -3.53,33.344 l 59.78,73.906 -11.25,89.937 a 23.682,23.695 0 0 0 12.47,23.876 l 37.468,53.47 a 23.695,23.682 1.57 0 0 2.344,2.812 23.682,23.695 0 0 0 13.594,20.062 L 262,491.53 a 23.682,23.695 0 0 0 9.97,2.22 23.682,23.695 0 0 0 23.53,-2.063 l 87.156,-60.937 a 23.682,23.695 0 0 0 5.844,-33 l -6.78,-9.688 a 23.682,23.695 0 0 0 -32.97,-5.875 l -72.406,50.657 -59.063,-27.625 120.595,-84.626 a 23.695,23.682 1.57 0 0 5.53,-5.5 23.682,23.695 0 0 0 14.626,-13.594 l 37.22,-91.53 87.813,-44.845 a 23.694,23.682 1.18 0 0 10.312,-31.875 L 488,122.687 a 23.694,23.682 1.18 0 0 -31.875,-10.343 l -94.688,48.375 a 23.694,23.682 1.18 0 0 -9.843,9.436 23.682,23.695 0 0 0 -8.344,10.47 l -27.375,67.31 -5.22,-7.436 a 23.682,23.695 0 0 0 -3,-8.844 l -50.81,-87.094 V 39.688 A 23.682,23.695 0 0 0 233.154,16 H 221.311 Z M 77.75,376 A 59.994,60 0 0 0 16,436 60,60.006001 0 1 0 136,436 59.994,60 0 0 0 77.75,376 Z"
           fill="#ffffff"
           fill-opacity="1"
           id="path2"
           style="fill:#ffff00" /></g></g></g></svg>
