<?xml version="1.0" encoding="UTF-8" standalone="no"?>
<!-- Created with Inkscape (http://www.inkscape.org/) -->

<svg
   width="410.61734mm"
   height="70.728683mm"
   viewBox="0 0 410.61734 70.728684"
   version="1.1"
   id="svg1"
   xml:space="preserve"
   inkscape:export-filename="Stabilize.svg"
   inkscape:export-xdpi="96"
   inkscape:export-ydpi="96"
   sodipodi:docname="Interact.svg"
   inkscape:version="1.4.2 (f4327f4, 2025-05-13)"
   xmlns:inkscape="http://www.inkscape.org/namespaces/inkscape"
   xmlns:sodipodi="http://sodipodi.sourceforge.net/DTD/sodipodi-0.dtd"
   xmlns="http://www.w3.org/2000/svg"
   xmlns:svg="http://www.w3.org/2000/svg"><sodipodi:namedview
     id="namedview1"
     pagecolor="#ffffff"
     bordercolor="#000000"
     borderopacity="0.25"
     inkscape:showpageshadow="2"
     inkscape:pageopacity="0.0"
     inkscape:pagecheckerboard="true"
     inkscape:deskcolor="#d1d1d1"
     inkscape:document-units="mm"
     inkscape:zoom="0.32829115"
     inkscape:cx="589.41583"
     inkscape:cy="-85.290146"
     inkscape:window-width="1500"
     inkscape:window-height="1094"
     inkscape:window-x="2729"
     inkscape:window-y="56"
     inkscape:window-maximized="0"
     inkscape:current-layer="g5"><inkscape:page
       x="0"
       y="0"
       width="410.61734"
       height="70.728683"
       id="page4"
       margin="0"
       bleed="0" /></sodipodi:namedview><defs
     id="defs1"><rect
       x="-825.48676"
       y="176.67244"
       width="344.20667"
       height="39.598995"
       id="rect4" /><rect
       x="103.38727"
       y="-1068.3351"
       width="616.01581"
       height="818.48254"
       id="rect1" /><rect
       x="398"
       y="10"
       width="1194"
       height="398"
       id="rect3" /></defs><g
     inkscape:label="Layer 1"
     inkscape:groupmode="layer"
     id="layer1"
     transform="translate(42.994079,-117.5032)"><g
       inkscape:label="Layer 1"
       id="layer1-1"
       transform="translate(43.806975,1.7935886)"
       style="fill:#ff4d00;fill-opacity:1"><text
         xml:space="preserve"
         transform="matrix(1.0460111,0,0,1.0460111,-429.2532,126.89345)"
         id="text2"
         style="font-weight:bold;font-size:74.1972px;line-height:0.6;font-family:Arial;-inkscape-font-specification:'Arial, Bold';font-variant-caps:small-caps;letter-spacing:0px;word-spacing:0px;white-space:pre;shape-inside:url(#rect3);display:inline;fill:#916f8a;fill-opacity:1;stroke:#ffffff;stroke-width:0.0377953;stroke-miterlimit:3.3"><tspan
           x="398"
           y="52.719365"
           id="tspan3">Interact</tspan></text><text
         xml:space="preserve"
         transform="matrix(0.26458333,0,0,0.26458333,-86.801054,120.26871)"
         id="text1"
         style="text-align:start;writing-mode:lr-tb;direction:ltr;white-space:pre;shape-inside:url(#rect1);display:inline;fill:#ff4d00;fill-opacity:1;stroke:#ffffff;stroke-width:0.445984" /><text
         xml:space="preserve"
         transform="matrix(0.26458333,0,0,0.26458333,-86.801054,120.26871)"
         id="text3"
         style="text-align:start;writing-mode:lr-tb;direction:ltr;white-space:pre;shape-inside:url(#rect4);display:inline;fill:#6c5d53;fill-opacity:1;stroke:#ffffff;stroke-width:0.445984" /><g
         id="g5"
         transform="matrix(0.14325985,0,0,0.14381638,-87.08913,114.40021)"><path
           d="M 0,0 H 512 V 512 H 0 Z"
           fill="url(#pattern)"
           fill-opacity="1"
           id="path1-8" /><g
           class=""
           id="g2-8"
           style="fill:#916f8a"><path
             d="m 459.15,269.75 a 133.197,133.197 0 0 1 -55.862,179.975 l -42.782,22.541 -10.52,5.533 a 71.277,71.277 0 0 1 -62.966,1.685 l -167.077,-71.38 15.733,-46.676 99.363,19.194 -51.458,-97.78 -82.843,-157.411 40.357,-21.232 82.844,157.457 19.934,-10.485 -36.521,-69.445 40.335,-21.22 36.52,69.445 19.935,-10.485 -28.2,-53.598 40.358,-21.232 28.2,53.598 19.945,-10.576 -19.354,-36.886 40.346,-21.174 19.354,36.885 54.348,103.301 z M 73.268,146.674 a 60.03,60.03 0 0 1 42.361,-102.459 60.098,60.098 0 0 1 56.58,80.169 l 10.588,20.013 A 78.29,78.29 0 0 0 115.708,26 78.233,78.233 0 0 0 110.073,182.262 L 99.428,162.02 a 59.688,59.688 0 0 1 -26.16,-15.346 z"
             fill="#ffffff"
             fill-opacity="1"
             id="path2-2"
             style="fill:#916f8a" /></g></g></g></g></svg>
