<?xml version="1.0" encoding="UTF-8" standalone="no"?>
<!-- Created with Inkscape (http://www.inkscape.org/) -->

<svg
   width="360.18503mm"
   height="68.880753mm"
   viewBox="0 0 360.18503 68.880752"
   version="1.1"
   id="svg1"
   xml:space="preserve"
   inkscape:export-filename="Stabilize.svg"
   inkscape:export-xdpi="96"
   inkscape:export-ydpi="96"
   sodipodi:docname="Jockey.svg"
   inkscape:version="1.4.2 (f4327f4, 2025-05-13)"
   xmlns:inkscape="http://www.inkscape.org/namespaces/inkscape"
   xmlns:sodipodi="http://sodipodi.sourceforge.net/DTD/sodipodi-0.dtd"
   xmlns="http://www.w3.org/2000/svg"
   xmlns:svg="http://www.w3.org/2000/svg"><sodipodi:namedview
     id="namedview1"
     pagecolor="#ffffff"
     bordercolor="#000000"
     borderopacity="0.25"
     inkscape:showpageshadow="2"
     inkscape:pageopacity="0.0"
     inkscape:pagecheckerboard="true"
     inkscape:deskcolor="#d1d1d1"
     inkscape:document-units="mm"
     inkscape:zoom="0.4642738"
     inkscape:cx="802.32829"
     inkscape:cy="-86.156058"
     inkscape:window-width="1500"
     inkscape:window-height="1094"
     inkscape:window-x="2729"
     inkscape:window-y="56"
     inkscape:window-maximized="0"
     inkscape:current-layer="g2"><inkscape:page
       x="0"
       y="0"
       width="360.18503"
       height="68.880753"
       id="page4"
       margin="0"
       bleed="0" /><inkscape:page
       x="-93.461372"
       y="-423.42563"
       width="0"
       height="0"
       id="page11"
       margin="0"
       bleed="0" /><inkscape:page
       x="39.892052"
       y="-94.031258"
       width="0"
       height="6.8386369"
       id="page12"
       margin="0"
       bleed="0" /></sodipodi:namedview><defs
     id="defs1"><rect
       x="564.3222"
       y="-805.55914"
       width="60.309238"
       height="77.540451"
       id="rect12" /><rect
       x="-158.39598"
       y="-1434.7021"
       width="3.0460765"
       height="12.184307"
       id="rect9" /><rect
       x="335.06842"
       y="-271.10083"
       width="3.0460765"
       height="18.276461"
       id="rect8" /><rect
       x="1098.4897"
       y="-318.7774"
       width="8.6156054"
       height="17.231213"
       id="rect7" /><rect
       x="-825.48676"
       y="176.67244"
       width="344.20667"
       height="39.598995"
       id="rect4" /><rect
       x="103.38727"
       y="-1068.3351"
       width="616.01581"
       height="818.48254"
       id="rect1" /><rect
       x="398"
       y="10"
       width="1194"
       height="398"
       id="rect3" /></defs><g
     inkscape:label="Layer 1"
     inkscape:groupmode="layer"
     id="layer1"
     transform="translate(42.994079,-119.35112)"><g
       inkscape:label="Layer 1"
       id="layer1-1"
       transform="translate(2.2052665,-74.856135)"
       style="fill:#803300;fill-opacity:1"><text
         xml:space="preserve"
         transform="matrix(1.0460111,0,0,1.0460111,-382.43803,202.48093)"
         id="text2"
         style="font-weight:bold;font-size:74.1972px;line-height:0.6;font-family:Arial;-inkscape-font-specification:'Arial, Bold';font-variant-caps:small-caps;letter-spacing:0px;word-spacing:0px;white-space:pre;shape-inside:url(#rect3);display:inline;fill:#803300;fill-opacity:1;stroke:#ffffff;stroke-width:0.0377953;stroke-miterlimit:3.3"><tspan
           x="398"
           y="52.719365"
           id="tspan1">Jockey</tspan></text><text
         xml:space="preserve"
         transform="matrix(0.26458333,0,0,0.26458333,-86.801054,120.26871)"
         id="text1"
         style="text-align:start;writing-mode:lr-tb;direction:ltr;white-space:pre;shape-inside:url(#rect1);display:inline;fill:#803300;fill-opacity:1;stroke:#ffffff;stroke-width:0.445984" /><text
         xml:space="preserve"
         transform="matrix(0.26458333,0,0,0.26458333,-86.801054,120.26871)"
         id="text3"
         style="text-align:start;writing-mode:lr-tb;direction:ltr;white-space:pre;shape-inside:url(#rect4);display:inline;fill:#803300;fill-opacity:1;stroke:#ffffff;stroke-width:0.445984" /><text
         xml:space="preserve"
         transform="matrix(0.26458333,0,0,0.26458333,-86.801054,118.46126)"
         id="text7"
         style="text-align:start;writing-mode:lr-tb;direction:ltr;white-space:pre;shape-inside:url(#rect7);display:inline;fill:#803300;fill-opacity:1;stroke:#ffffff;stroke-width:0.445984" /><text
         xml:space="preserve"
         transform="matrix(0.26458333,0,0,0.26458333,-86.801054,118.46126)"
         id="text8"
         style="text-align:start;writing-mode:lr-tb;direction:ltr;white-space:pre;shape-inside:url(#rect8);display:inline;fill:#803300;fill-opacity:1;stroke:#ffffff;stroke-width:0.445984" /><text
         xml:space="preserve"
         transform="matrix(0.26458333,0,0,0.26458333,-86.801054,118.46126)"
         id="text9"
         style="text-align:start;writing-mode:lr-tb;direction:ltr;white-space:pre;shape-inside:url(#rect9);display:inline;fill:#803300;fill-opacity:1;stroke:#ffffff;stroke-width:0.445984" /><text
         xml:space="preserve"
         transform="matrix(0.26458333,0,0,0.26458333,-86.801054,118.12742)"
         id="text12"
         style="text-align:start;writing-mode:lr-tb;direction:ltr;white-space:pre;shape-inside:url(#rect12);display:inline;fill:#803300;fill-opacity:1;stroke:#ffffff;stroke-width:0.445984" /></g><g
       id="g1"
       transform="matrix(0.26458333,0,0,0.26458333,-73.726369,153.56382)"><path
         d="M 0,0 H 512 V 512 H 0 Z"
         fill="url(#pattern)"
         fill-opacity="1"
         id="path1" /><g
         class=""
         id="g2"
         style="fill:#ff9955"><path
           d="m 378.91994,-117.92054 -62.90661,11.81712 41.90039,7.888592 8.40249,39.37461 z m -26.10372,24.528275 -49.74273,12.679599 22.57468,12.774268 13.61204,21.246619 z m -161.43978,20.03703 c -2.01659,0.105181 -4.03318,0.473316 -6.1058,1.156995 -12.07717,4.15466 -21.43194,13.778748 -28.31638,26.032367 -6.88444,12.253618 -11.40497,27.347132 -13.62322,43.2820958 -3.55706,25.6642352 -3.66909,50.2240582 4.84543,71.3654972 -0.82905,0.578498 -1.63009,1.262182 -2.38631,1.945857 -8.91224,8.361915 -8.91224,22.140666 0,30.502563 8.91224,8.36192 23.57177,8.36192 32.48401,0 7.66867,-7.204917 8.73298,-18.406714 3.17614,-26.768629 l 12.27884,-11.517352 -7.11411,-6.731599 -12.30685,11.569944 c -4.81182,-2.839895 -10.53671,-3.83912 -15.99273,-3.050258 -7.41659,-19.090406 -8.27365,-42.388056 -4.98547,-66.0538478 2.08942,-15.0935132 6.4083,-29.1878052 12.54211,-40.1266582 6.13382,-10.938852 13.97054,-18.511904 22.87157,-21.509571 5.04149,-1.735491 7.73029,-0.894041 11.37137,2.524351 3.69709,3.418391 7.33816,9.93963 10.4751,18.511904 4.14522,11.46476 7.39418,26.347911 10.36306,42.12510265 l 8.68257,-8.20413995 c -2.63278,-13.5157947 -5.65767,-26.3479107 -9.52282,-36.9712187 -3.361,-9.255953 -7.22614,-16.934186 -12.88381,-22.193251 -3.92117,-3.628754 -9.1307,-5.837561 -14.73236,-5.890152 z m 122.45224,9.834451 -25.03941,23.508015 7.17012,6.731602 25.03941,-23.508016 -2.74481,-4.20725 z m -44.08505,19.037811 -11.8755,11.201806 30.92114,29.0300327 11.87551,-11.2018057 z m 101.44602,21.141437 c -7.1141,-0.157772 -13.21991,3.155438 -18.03734,7.625643 -4.7614,4.470204 -8.62655,10.1499929 -11.81949,16.09273565 1.84854,3.83911695 3.92116,7.36268895 6.04979,10.57071935 3.52904,-7.7308254 7.95435,-15.3564677 12.88381,-19.9318539 3.58506,-3.3658001 7.00207,-4.9961101 10.58713,-4.8909291 3.64108,0.105181 8.34647,1.998444 14.22821,7.9411868 7.56224,7.5204608 9.97096,13.0424778 10.02697,16.6186432 0.056,3.576163 -1.73652,6.205695 -5.71369,9.098183 -5.54564,4.102068 -14.84439,7.362691 -23.52696,10.57072 3.13693,2.419168 6.4419,4.627972 9.85891,6.731599 6.89004,-2.524354 14.11618,-5.574613 19.88589,-9.834451 5.37759,-3.944298 9.69087,-9.676681 9.57883,-16.723823 -0.16804,-7.0997374 -4.25726,-14.4624268 -12.71576,-22.98211 -7.05809,-7.047146 -14.22821,-10.675901 -21.2863,-10.886263 z m -114.10576,2.682122 -49.91077,46.858265 18.20539,17.144548 49.96678,-46.9108547 z m 72.20537,26.1901386 c -4.25726,-0.157772 -5.48963,5.8901524 -2.91287,8.2041414 8.34647,10.781085 15.90871,27.452313 38.70745,37.076401 5.43362,-0.788861 7.28216,-2.524354 6.55394,-4.996106 -14.84439,-8.88782 -28.17633,-20.247401 -37.81118,-38.2334014 -1.73652,-1.419947 -3.24897,-1.998444 -4.53734,-2.051035 z m -18.82157,8.6774574 c -3.64108,0.105181 -4.7054,5.048697 -3.30498,7.310094 11.76348,19.300769 30.80912,36.550504 47.05392,45.806458 11.25933,1.051809 9.1307,-5.732384 5.26556,-8.098968 -14.45228,-8.204135 -32.93774,-24.927957 -43.58089,-42.440639 -2.18465,-1.893268 -4.0332,-2.629537 -5.43361,-2.576945 z m -19.10166,6.94196 c -3.52904,0.105186 -6.778,4.259847 -4.81742,6.784193 11.76348,19.668903 40.49998,46.542726 56.29666,55.535723 4.7614,3.155436 12.09958,-3.050259 5.26555,-8.098959 -12.43567,-7.099733 -42.74064,-35.235729 -52.82363,-52.064737 -1.17634,-1.577722 -2.57676,-2.15622 -3.92116,-2.15622 z m -91.30701,11.727715 -11.87552,11.149217 18.20539,17.144549 11.87552,-11.149217 z m 78.53524,4.575388 c -3.52905,0.210364 -5.76971,4.154661 -2.18465,8.782634 10.69917,19.668903 28.4004,34.762418 48.45433,48.120434 7.3942,4.25984 11.8195,-2.7347 5.82573,-7.678226 -19.38174,-12.937304 -35.73858,-27.084187 -45.31741,-44.75464 -1.96058,-3.102843 -4.31328,-4.417608 -6.38589,-4.470202 z m -39.54771,6.416059 -8.68256,8.151552 c 2.40871,11.885485 5.15352,22.666559 8.62655,31.238838 l -0.11203,0.105177 c -4.76142,4.207255 -8.51452,9.308542 -9.13071,15.461642 -0.6722,6.153117 1.96059,12.674347 7.73029,18.932637 5.37759,5.78497 11.59543,8.88782 17.86929,9.20336 6.27385,0.26296 12.09958,-2.10363 17.14107,-5.52202 8.68256,-5.73237 16.07676,-14.62019 22.07052,-22.456197 3.19295,2.682117 6.44192,5.311647 9.85892,7.941177 6.16183,2.41918 8.57054,0.36814 6.38589,-7.257497 -18.76555,-14.567609 -33.77799,-29.45076 -42.62861,-44.754638 -7.17012,-6.626422 -10.92323,0.683684 -8.85061,4.522795 1.79252,3.050259 3.7531,6.047925 5.88173,9.04559 -6.04979,2.471761 -12.26762,5.311657 -17.81326,8.73005 -3.19295,-8.73005 -5.82574,-20.457756 -8.34648,-33.342466 z m -76.51304,29.661125 c 3.12013,0.105177 6.20664,1.314766 8.60975,3.576163 5.0695,4.785743 5.0695,12.358801 0,17.144551 -5.0695,4.73315 -13.15269,4.73315 -18.2222,0 -4.92385,-4.62798 -5.06389,-11.938081 -0.43132,-16.723833 1.10352,1.99845 2.28548,3.944298 3.57386,5.837561 3.47863,4.943523 13.09107,1.735493 9.85331,-4.259838 -1.21556,-1.788077 -2.33588,-3.628757 -3.3834,-5.574604 z m 108.89063,2.787302 c 4.64937,5.469427 9.91493,10.833667 15.68464,16.092732 -6.0498,7.941177 -13.33195,16.618637 -20.39004,21.299207 -3.97718,2.62953 -7.67427,3.89171 -10.92323,3.78652 -3.24896,-0.15777 -6.60996,-1.52513 -10.69917,-5.94274 -4.59336,-4.94352 -5.65768,-8.62486 -5.32157,-11.780297 0.28008,-2.41917 1.51245,-4.83834 3.75311,-7.3101 2.74481,4.25985 6.04979,7.573047 10.69916,9.150777 3.41701,1.1044 7.33818,0.94663 10.97925,-0.36814 3.58506,-1.367357 7.00208,-3.681347 10.53112,-6.994547 l -7.17012,-6.731611 c -2.85684,2.734721 -5.32158,4.259851 -7.1141,4.890931 -1.73652,0.68368 -2.74482,0.63109 -3.80914,0.26295 -1.62447,-0.57849 -3.92115,-2.68212 -6.21784,-6.573824 5.71369,-3.628756 12.93984,-6.941963 19.99793,-9.781858 z"
           fill="#ffffff"
           fill-opacity="1"
           id="path2"
           style="fill:#803300;stroke-width:0.542766" /></g></g></g></svg>
