<?xml version="1.0" encoding="UTF-8" standalone="no"?>
<!-- Created with Inkscape (http://www.inkscape.org/) -->

<svg
   width="391.211mm"
   height="60.528mm"
   viewBox="0 0 391.21099 60.528"
   version="1.1"
   id="svg1"
   xml:space="preserve"
   inkscape:export-filename="Stabilize.svg"
   inkscape:export-xdpi="96"
   inkscape:export-ydpi="96"
   sodipodi:docname="Lockon.svg"
   inkscape:version="1.4.2 (f4327f4, 2025-05-13)"
   xmlns:inkscape="http://www.inkscape.org/namespaces/inkscape"
   xmlns:sodipodi="http://sodipodi.sourceforge.net/DTD/sodipodi-0.dtd"
   xmlns="http://www.w3.org/2000/svg"
   xmlns:svg="http://www.w3.org/2000/svg"><sodipodi:namedview
     id="namedview1"
     pagecolor="#ffffff"
     bordercolor="#000000"
     borderopacity="0.25"
     inkscape:showpageshadow="2"
     inkscape:pageopacity="0.0"
     inkscape:pagecheckerboard="true"
     inkscape:deskcolor="#d1d1d1"
     inkscape:document-units="mm"
     inkscape:zoom="0.4642738"
     inkscape:cx="830.32899"
     inkscape:cy="-196.00503"
     inkscape:window-width="1500"
     inkscape:window-height="1094"
     inkscape:window-x="2859"
     inkscape:window-y="72"
     inkscape:window-maximized="0"
     inkscape:current-layer="layer1" /><defs
     id="defs1"><rect
       x="398"
       y="10"
       width="1194"
       height="398"
       id="rect3" /></defs><g
     inkscape:label="Layer 1"
     inkscape:groupmode="layer"
     id="layer1"
     transform="translate(42.994079,-122.0623)"><g
       inkscape:label="Layer 1"
       id="layer1-1"
       transform="translate(35.714013,0.97925959)"
       style="fill:#f5da00;fill-opacity:1"><text
         xml:space="preserve"
         transform="matrix(1.0460111,0,0,1.0460111,-429.51298,123.66129)"
         id="text2"
         style="font-weight:bold;font-size:74.1972px;line-height:0.6;font-family:Arial;-inkscape-font-specification:'Arial, Bold';font-variant-caps:small-caps;letter-spacing:0px;word-spacing:0px;white-space:pre;shape-inside:url(#rect3);display:inline;fill:#f5da00;fill-opacity:1;stroke:#ffffff;stroke-width:0.0377953;stroke-miterlimit:3.3"><tspan
           x="398"
           y="52.719365"
           id="tspan1">Lock On</tspan></text></g><path
       d="m -12.639941,122.83434 v 21.59418 l 2.7441907,2.68938 2.7441906,-2.68938 v -21.59418 z m -16.545843,10.75753 v 10.83665 h 5.488382 v -5.45787 h 5.569087 v -5.37878 z m 27.5225997,0 v 5.37878 H 3.905908 v 5.45787 h 5.4883751 v -10.83665 z m -16.4651307,16.21542 h -22.03422 v 5.37877 h 22.03422 l 2.74419,-2.68938 z m 16.4651307,0 -2.7441909,2.68939 2.7441909,2.68938 H 20.371038 v -5.37877 z m -8.232566,8.06815 -2.7441907,2.68939 v 21.59418 h 5.4883813 v -21.59418 z m -19.2900337,2.68939 v 10.83665 h 11.057469 v -5.37879 h -5.569087 v -5.45786 z m 33.091692,0 v 5.45786 h -5.5690923 v 5.37879 H 9.3942831 v -10.83665 z"
       id="path2"
       style="fill:#f5da00;stroke-width:0.0799017;fill-opacity:1"
       inkscape:connector-curvature="0" /></g></svg>
