<?xml version="1.0" encoding="UTF-8" standalone="no"?>
<!-- Created with Inkscape (http://www.inkscape.org/) -->

<svg
   width="527.94348mm"
   height="65.559204mm"
   viewBox="0 0 527.94348 65.559204"
   version="1.1"
   id="svg1"
   xml:space="preserve"
   inkscape:export-filename="Stabilize.svg"
   inkscape:export-xdpi="96"
   inkscape:export-ydpi="96"
   sodipodi:docname="Overwatch.svg"
   inkscape:version="1.4.2 (f4327f4, 2025-05-13)"
   xmlns:inkscape="http://www.inkscape.org/namespaces/inkscape"
   xmlns:sodipodi="http://sodipodi.sourceforge.net/DTD/sodipodi-0.dtd"
   xmlns="http://www.w3.org/2000/svg"
   xmlns:svg="http://www.w3.org/2000/svg"><sodipodi:namedview
     id="namedview1"
     pagecolor="#ffffff"
     bordercolor="#000000"
     borderopacity="0.25"
     inkscape:showpageshadow="2"
     inkscape:pageopacity="0.0"
     inkscape:pagecheckerboard="true"
     inkscape:deskcolor="#d1d1d1"
     inkscape:document-units="mm"
     inkscape:zoom="0.32829115"
     inkscape:cx="863.56272"
     inkscape:cy="240.64005"
     inkscape:window-width="1500"
     inkscape:window-height="1094"
     inkscape:window-x="2729"
     inkscape:window-y="56"
     inkscape:window-maximized="0"
     inkscape:current-layer="layer1-1"><inkscape:page
       x="0"
       y="4.9324962e-09"
       width="527.94348"
       height="65.559204"
       id="page4"
       margin="0"
       bleed="0" /><inkscape:page
       x="-93.461372"
       y="-426.74716"
       width="0"
       height="0"
       id="page11"
       margin="0"
       bleed="0" /><inkscape:page
       x="39.892052"
       y="-97.352806"
       width="0"
       height="6.8386369"
       id="page12"
       margin="0"
       bleed="0" /></sodipodi:namedview><defs
     id="defs1"><rect
       x="-158.39598"
       y="-1434.7021"
       width="3.0460765"
       height="12.184307"
       id="rect9" /><rect
       x="335.06842"
       y="-271.10083"
       width="3.0460765"
       height="18.276461"
       id="rect8" /><rect
       x="1098.4897"
       y="-318.7774"
       width="8.6156054"
       height="17.231213"
       id="rect7" /><rect
       x="-825.48676"
       y="176.67244"
       width="344.20667"
       height="39.598995"
       id="rect4" /><rect
       x="103.38727"
       y="-1068.3351"
       width="616.01581"
       height="818.48254"
       id="rect1" /><rect
       x="398"
       y="10"
       width="1194"
       height="398"
       id="rect3" /></defs><g
     inkscape:label="Layer 1"
     inkscape:groupmode="layer"
     id="layer1"
     transform="translate(42.994079,-122.67267)"><g
       inkscape:label="Layer 1"
       id="layer1-1"
       transform="translate(43.806975,1.7935886)"
       style="fill:#ff4d00;fill-opacity:1"><text
         xml:space="preserve"
         transform="matrix(1.0460111,0,0,1.0460111,-414.35167,124.97638)"
         id="text2"
         style="font-weight:bold;font-size:74.1972px;line-height:0.6;font-family:Arial;-inkscape-font-specification:'Arial, Bold';font-variant-caps:small-caps;letter-spacing:0px;word-spacing:0px;white-space:pre;shape-inside:url(#rect3);display:inline;fill:#8800aa;fill-opacity:1;stroke:#ffffff;stroke-width:0.0377953;stroke-miterlimit:3.3"><tspan
           x="398"
           y="52.719365"
           id="tspan1">Overwtach</tspan></text><text
         xml:space="preserve"
         transform="matrix(0.26458333,0,0,0.26458333,-86.801054,120.26871)"
         id="text1"
         style="text-align:start;writing-mode:lr-tb;direction:ltr;white-space:pre;shape-inside:url(#rect1);display:inline;fill:#ff4d00;fill-opacity:1;stroke:#ffffff;stroke-width:0.445984" /><text
         xml:space="preserve"
         transform="matrix(0.26458333,0,0,0.26458333,-86.801054,120.26871)"
         id="text3"
         style="text-align:start;writing-mode:lr-tb;direction:ltr;white-space:pre;shape-inside:url(#rect4);display:inline;fill:#6c5d53;fill-opacity:1;stroke:#ffffff;stroke-width:0.445984" /><text
         xml:space="preserve"
         transform="matrix(0.26458333,0,0,0.26458333,-86.801054,118.46126)"
         id="text7"
         style="text-align:start;writing-mode:lr-tb;direction:ltr;white-space:pre;shape-inside:url(#rect7);display:inline;fill:#939dac;fill-opacity:1;stroke:#ffffff;stroke-width:0.445984" /><text
         xml:space="preserve"
         transform="matrix(0.26458333,0,0,0.26458333,-86.801054,118.46126)"
         id="text8"
         style="text-align:start;writing-mode:lr-tb;direction:ltr;white-space:pre;shape-inside:url(#rect8);display:inline;fill:#dbe3e2;fill-opacity:1;stroke:#ffffff;stroke-width:0.445984" /><text
         xml:space="preserve"
         transform="matrix(0.26458333,0,0,0.26458333,-86.801054,118.46126)"
         id="text9"
         style="text-align:start;writing-mode:lr-tb;direction:ltr;white-space:pre;shape-inside:url(#rect9);display:inline;fill:#c8ab37;fill-opacity:1;stroke:#ffffff;stroke-width:0.445984" /><path
         fill="currentColor"
         d="m -46.037988,125.37299 v 16.84216 q -3.39878,0.32388 -6.744453,1.34952 -3.345674,1.02565 -6.638241,2.75305 l -5.416805,-8.31311 -5.947865,4.10258 5.098169,7.88127 q -2.442872,1.72739 -4.885745,3.67072 -2.442872,1.94332 -4.779534,4.3185 l -5.310593,-2.69906 -3.292567,6.58571 9.665279,4.85833 1.805602,-1.94333 q 3.611202,-3.56277 7.116194,-6.31582 3.504991,-2.75304 6.903771,-4.69637 -0.955906,1.94333 -1.540072,4.0486 -0.584166,2.10527 -0.584166,4.37248 0,7.66535 5.363699,13.06348 5.363699,5.39812 12.798529,5.39812 7.434831,0 12.798529,-5.39812 5.363699,-5.39813 5.363699,-13.06348 0,-2.26721 -0.584164,-4.37248 -0.584166,-2.10527 -1.540072,-4.0486 3.398779,1.94333 6.90377,4.69637 3.504991,2.75305 7.116195,6.31582 l 1.805601,1.94333 9.66527917,-4.85833 -3.29256697,-6.58571 -5.3105935,2.69906 q -2.3366607,-2.37518 -4.7795327,-4.3185 -2.442873,-1.94333 -4.885747,-3.67072 l 5.09817,-7.88127 -5.947865,-4.10258 -5.416804,8.31311 q -3.292567,-1.7274 -6.638241,-2.75305 -3.345674,-1.02564 -6.744453,-1.34952 v -16.84216 z m 3.611202,29.47377 q 3.080145,0 5.151276,2.15926 2.071132,2.15925 2.071132,5.1822 0,3.13091 -2.071132,5.23618 -2.071131,2.10527 -5.151276,2.10527 -3.080143,0 -5.151275,-2.10527 -2.071131,-2.10527 -2.071131,-5.23618 0,-3.02295 2.071131,-5.1822 2.071132,-2.15926 5.151275,-2.15926 z"
         id="path1808"
         style="fill:#8800aa;stroke-width:0.107084" /></g></g></svg>
