<?xml version="1.0" encoding="UTF-8" standalone="no"?>
<!-- Created with Inkscape (http://www.inkscape.org/) -->

<svg
   width="375.00208mm"
   height="68.880753mm"
   viewBox="0 0 375.00208 68.880752"
   version="1.1"
   id="svg1"
   xml:space="preserve"
   inkscape:export-filename="Stabilize.svg"
   inkscape:export-xdpi="96"
   inkscape:export-ydpi="96"
   sodipodi:docname="Reload.svg"
   inkscape:version="1.4.2 (f4327f4, 2025-05-13)"
   xmlns:inkscape="http://www.inkscape.org/namespaces/inkscape"
   xmlns:sodipodi="http://sodipodi.sourceforge.net/DTD/sodipodi-0.dtd"
   xmlns="http://www.w3.org/2000/svg"
   xmlns:svg="http://www.w3.org/2000/svg"><sodipodi:namedview
     id="namedview1"
     pagecolor="#ffffff"
     bordercolor="#000000"
     borderopacity="0.25"
     inkscape:showpageshadow="2"
     inkscape:pageopacity="0.0"
     inkscape:pagecheckerboard="true"
     inkscape:deskcolor="#d1d1d1"
     inkscape:document-units="mm"
     inkscape:zoom="0.2321369"
     inkscape:cx="277.85329"
     inkscape:cy="-818.48255"
     inkscape:window-width="1500"
     inkscape:window-height="1094"
     inkscape:window-x="2729"
     inkscape:window-y="56"
     inkscape:window-maximized="0"
     inkscape:current-layer="g4"><inkscape:page
       x="0"
       y="0"
       width="375.00208"
       height="68.880753"
       id="page4"
       margin="0"
       bleed="0" /><inkscape:page
       x="-93.461372"
       y="-423.42563"
       width="0"
       height="0"
       id="page11"
       margin="0"
       bleed="0" /><inkscape:page
       x="39.892052"
       y="-94.031258"
       width="0"
       height="6.8386369"
       id="page12"
       margin="0"
       bleed="0" /></sodipodi:namedview><defs
     id="defs1"><rect
       x="564.3222"
       y="-805.55914"
       width="60.309238"
       height="77.540451"
       id="rect12" /><rect
       x="-158.39598"
       y="-1434.7021"
       width="3.0460765"
       height="12.184307"
       id="rect9" /><rect
       x="335.06842"
       y="-271.10083"
       width="3.0460765"
       height="18.276461"
       id="rect8" /><rect
       x="1098.4897"
       y="-318.7774"
       width="8.6156054"
       height="17.231213"
       id="rect7" /><rect
       x="-825.48676"
       y="176.67244"
       width="344.20667"
       height="39.598995"
       id="rect4" /><rect
       x="103.38727"
       y="-1068.3351"
       width="616.01581"
       height="818.48254"
       id="rect1" /><rect
       x="398"
       y="10"
       width="1194"
       height="398"
       id="rect3" /></defs><g
     inkscape:label="Layer 1"
     inkscape:groupmode="layer"
     id="layer1"
     transform="translate(42.994079,-119.35112)"><g
       inkscape:label="Layer 1"
       id="layer1-1"
       transform="translate(10.264678,-75.259106)"
       style="fill:#6f916f;fill-opacity:1"><text
         xml:space="preserve"
         transform="matrix(1.0460111,0,0,1.0460111,-382.43803,202.48093)"
         id="text2"
         style="font-weight:bold;font-size:74.1972px;line-height:0.6;font-family:Arial;-inkscape-font-specification:'Arial, Bold';font-variant-caps:small-caps;letter-spacing:0px;word-spacing:0px;white-space:pre;shape-inside:url(#rect3);display:inline;fill:#6f916f;fill-opacity:1;stroke:#ffffff;stroke-width:0.0377953;stroke-miterlimit:3.3"><tspan
           x="398"
           y="52.719365"
           id="tspan1">Reload</tspan></text><text
         xml:space="preserve"
         transform="matrix(0.26458333,0,0,0.26458333,-86.801054,120.26871)"
         id="text1"
         style="text-align:start;writing-mode:lr-tb;direction:ltr;white-space:pre;shape-inside:url(#rect1);display:inline;fill:#6f916f;fill-opacity:1;stroke:#ffffff;stroke-width:0.445984" /><text
         xml:space="preserve"
         transform="matrix(0.26458333,0,0,0.26458333,-86.801054,120.26871)"
         id="text3"
         style="text-align:start;writing-mode:lr-tb;direction:ltr;white-space:pre;shape-inside:url(#rect4);display:inline;fill:#6f916f;fill-opacity:1;stroke:#ffffff;stroke-width:0.445984" /><text
         xml:space="preserve"
         transform="matrix(0.26458333,0,0,0.26458333,-86.801054,118.46126)"
         id="text7"
         style="text-align:start;writing-mode:lr-tb;direction:ltr;white-space:pre;shape-inside:url(#rect7);display:inline;fill:#6f916f;fill-opacity:1;stroke:#ffffff;stroke-width:0.445984" /><text
         xml:space="preserve"
         transform="matrix(0.26458333,0,0,0.26458333,-86.801054,118.46126)"
         id="text8"
         style="text-align:start;writing-mode:lr-tb;direction:ltr;white-space:pre;shape-inside:url(#rect8);display:inline;fill:#6f916f;fill-opacity:1;stroke:#ffffff;stroke-width:0.445984" /><text
         xml:space="preserve"
         transform="matrix(0.26458333,0,0,0.26458333,-86.801054,118.46126)"
         id="text9"
         style="text-align:start;writing-mode:lr-tb;direction:ltr;white-space:pre;shape-inside:url(#rect9);display:inline;fill:#6f916f;fill-opacity:1;stroke:#ffffff;stroke-width:0.445984" /><text
         xml:space="preserve"
         transform="matrix(0.26458333,0,0,0.26458333,-86.801054,118.12742)"
         id="text12"
         style="text-align:start;writing-mode:lr-tb;direction:ltr;white-space:pre;shape-inside:url(#rect12);display:inline;fill:#6f916f;fill-opacity:1;stroke:#ffffff;stroke-width:0.445984" /></g><g
       id="g1"
       transform="matrix(0.26458333,0,0,0.26458333,-70.905575,153.16085)"><path
         d="M 0,0 H 512 V 512 H 0 Z"
         fill="url(#pattern)"
         fill-opacity="1"
         id="path1" /><g
         class=""
         id="g2"
         style="fill:#ff9955"><g
           id="g3"
           transform="matrix(0.5666956,0,0,0.41524941,121.52428,-109.4524)"><path
             d="M 0,0 H 512 V 512 H 0 Z"
             fill="url(#pattern)"
             fill-opacity="1"
             id="path1-0" /><g
             id="g4"
             transform="matrix(1.0927215,0,0,1.2548504,-17.759798,-65.623884)"><path
               d="M 0,0 H 512 V 512 H 0 Z"
               fill="url(#pattern)"
               fill-opacity="1"
               id="path1-4" /><g
               class=""
               id="g2-8"
               style="fill:#6f916f"><path
                 d="m 146.8,41 c -0.2,10.26 -0.6,20.25 -1.3,30 h 175.3 c 0.3,-9.83 0.4,-19.82 0.2,-30 z M 144,89 C 131.1,214.5 76.78,297.9 21.96,367.2 L 137.3,482.6 C 239.3,357.1 310.3,244.5 320,89 h -29.2 c -2.2,49 -22,109.8 -48.6,168.7 -26.9,59.5 -60.9,117 -92.2,157.6 l -12.8,-12.8 c 29.7,-39.1 62.7,-94.9 88.6,-152.2 25.9,-57.4 44.7,-116.6 47,-161.3 h -30 c -2.2,49 -22,109.8 -48.6,168.7 -21.2,46.9 -46.8,92.6 -72.1,129.7 l -12.9,-13 c 23.9,-35.6 48.4,-79.4 68.6,-124.1 25.9,-57.4 44.7,-116.6 47,-161.3 h -30 c -2.2,49 -22,109.8 -48.6,168.7 C 130.3,293 111.9,327.5 93,358.2 L 79.9,345.1 c 17.6,-29.2 35,-61.7 49.9,-94.8 25.9,-57.4 44.7,-116.6 47,-161.3 z m 192,149 c -1,2.4 -2.1,5.2 -3.2,8.7 -3.5,11.3 -7,27.1 -10,43 -4,21.3 -6.9,41.8 -8.5,53.3 h 43.4 c -1.6,-11.5 -4.5,-32 -8.5,-53.3 -3,-15.9 -6.5,-31.7 -10,-43 -1.1,-3.5 -2.2,-6.3 -3.2,-8.7 z m 64,0 c -1,2.4 -2.1,5.2 -3.2,8.7 -3.5,11.3 -7,27.1 -10,43 -4,21.3 -6.9,41.8 -8.5,53.3 h 43.4 c -1.6,-11.5 -4.5,-32 -8.5,-53.3 -3,-15.9 -6.5,-31.7 -10,-43 -1.1,-3.5 -2.2,-6.3 -3.2,-8.7 z m 64,0 c -1,2.4 -2.1,5.2 -3.2,8.7 -3.5,11.3 -7,27.1 -10,43 -4,21.3 -6.9,41.8 -8.5,53.3 h 43.4 c -1.6,-11.5 -4.5,-32 -8.5,-53.3 -3,-15.9 -6.5,-31.7 -10,-43 -1.1,-3.5 -2.2,-6.3 -3.2,-8.7 z M 313,361 v 126 h 46 V 361 Z m 64,0 v 126 h 46 V 361 Z m 64,0 v 126 h 46 V 361 Z"
                 fill="#ffffff"
                 fill-opacity="1"
                 id="path2"
                 style="fill:#6f916f" /></g></g></g></g></g></g></svg>
