<?xml version="1.0" encoding="UTF-8" standalone="no"?>
<!-- Created with Inkscape (http://www.inkscape.org/) -->

<svg
   width="276.116mm"
   height="69.922745mm"
   viewBox="0 0 276.11599 69.922745"
   version="1.1"
   id="svg1"
   xml:space="preserve"
   inkscape:export-filename="Stabilize.svg"
   inkscape:export-xdpi="96"
   inkscape:export-ydpi="96"
   sodipodi:docname="Scan.svg"
   inkscape:version="1.4.2 (f4327f4, 2025-05-13)"
   xmlns:inkscape="http://www.inkscape.org/namespaces/inkscape"
   xmlns:sodipodi="http://sodipodi.sourceforge.net/DTD/sodipodi-0.dtd"
   xmlns="http://www.w3.org/2000/svg"
   xmlns:svg="http://www.w3.org/2000/svg"><sodipodi:namedview
     id="namedview1"
     pagecolor="#ffffff"
     bordercolor="#000000"
     borderopacity="0.25"
     inkscape:showpageshadow="2"
     inkscape:pageopacity="0.0"
     inkscape:pagecheckerboard="true"
     inkscape:deskcolor="#d1d1d1"
     inkscape:document-units="mm"
     inkscape:zoom="0.2321369"
     inkscape:cx="-66.770945"
     inkscape:cy="-224.00575"
     inkscape:window-width="1500"
     inkscape:window-height="1094"
     inkscape:window-x="2729"
     inkscape:window-y="56"
     inkscape:window-maximized="0"
     inkscape:current-layer="g4"><inkscape:page
       x="0"
       y="1.9025585e-08"
       width="276.116"
       height="69.922745"
       id="page4"
       margin="0 0 0"
       bleed="0" /></sodipodi:namedview><defs
     id="defs1"><rect
       x="-825.48676"
       y="176.67244"
       width="344.20667"
       height="39.598995"
       id="rect4" /><rect
       x="103.38727"
       y="-1068.3351"
       width="616.01581"
       height="818.48254"
       id="rect1" /><rect
       x="398"
       y="10"
       width="1194"
       height="398"
       id="rect3" /></defs><g
     inkscape:label="Layer 1"
     inkscape:groupmode="layer"
     id="layer1"
     transform="translate(42.994079,-118.30914)"><g
       inkscape:label="Layer 1"
       id="layer1-1"
       transform="translate(43.806975,1.7935886)"
       style="fill:#ff4d00;fill-opacity:1"><text
         xml:space="preserve"
         transform="matrix(1.0460111,0,0,1.0460111,-429.2532,126.89345)"
         id="text2"
         style="font-weight:bold;font-size:74.1972px;line-height:0.6;font-family:Arial;-inkscape-font-specification:'Arial, Bold';font-variant-caps:small-caps;letter-spacing:0px;word-spacing:0px;white-space:pre;shape-inside:url(#rect3);display:inline;fill:#deaa87;fill-opacity:1;stroke:#ffffff;stroke-width:0.0377953;stroke-miterlimit:3.3"><tspan
           x="398"
           y="52.719365"
           id="tspan3">Scan</tspan></text><text
         xml:space="preserve"
         transform="matrix(0.26458333,0,0,0.26458333,-86.801054,120.26871)"
         id="text1"
         style="text-align:start;writing-mode:lr-tb;direction:ltr;white-space:pre;shape-inside:url(#rect1);display:inline;fill:#ff4d00;fill-opacity:1;stroke:#ffffff;stroke-width:0.445984" /><text
         xml:space="preserve"
         transform="matrix(0.26458333,0,0,0.26458333,-86.801054,120.26871)"
         id="text3"
         style="text-align:start;writing-mode:lr-tb;direction:ltr;white-space:pre;shape-inside:url(#rect4);display:inline;fill:#6c5d53;fill-opacity:1;stroke:#ffffff;stroke-width:0.445984" /><g
         id="g4"
         transform="matrix(0.14270332,0,0,0.13602497,-85.837601,118.01563)"><path
           d="M 0,0 H 512 V 512 H 0 Z"
           fill="url(#pattern)"
           fill-opacity="1"
           id="path1" /><g
           class=""
           id="g2"
           style="fill:#deaa87"><path
             d="m 252.78,20.875 c -1.302,0.012 -2.6,0.03 -3.905,0.063 -37.928,0.974 -76.148,11.153 -111.28,31.437 C 25.164,117.285 -13.41,261.322 51.5,373.75 c 64.91,112.428 208.946,151.036 321.375,86.125 77.7,-44.86 120.1,-127.513 117.47,-211.406 -3.563,65.847 -35.898,128.573 -91,169.374 a 217.993,217.993 0 0 1 -35.814,25.844 c -103.68,59.86 -235.983,24.4 -295.842,-79.282 -59.86,-103.68 -24.43,-235.984 79.25,-295.844 35.64,-20.576 74.67,-29.88 112.968,-29.03 63.304,1.4 124.623,30.57 165.438,82.53 l -32.594,23.032 c -33.27,-42.835 -84.01,-66.6 -136.063,-67 -0.96,-0.008 -1.91,-0.012 -2.875,0 -0.964,0.01 -1.943,0.038 -2.906,0.062 -28.006,0.717 -56.222,8.215 -82.156,23.188 -82.99,47.914 -111.508,154.322 -63.594,237.312 47.914,82.99 154.32,111.51 237.313,63.594 51.37,-29.66 81.862,-81.724 86.28,-136.78 -12.53,45.37 -42.32,86.745 -85.438,114.186 -0.02,0.013 -0.043,0.018 -0.062,0.03 l -0.344,0.22 a 158.059,158.059 0 0 1 -9.78,6.156 c -74.245,42.865 -168.918,17.494 -211.782,-56.75 -42.864,-74.243 -17.493,-168.917 56.75,-211.78 23.2,-13.396 48.39,-20.122 73.375,-20.782 47.953,-1.266 95.138,19.858 125.968,59.156 l -39.844,28.156 c -20.232,-24.32 -50.055,-37.79 -80.594,-38.03 -1.17,-0.01 -2.33,0 -3.5,0.03 -17.035,0.432 -34.176,4.995 -49.938,14.094 -50.435,29.12 -67.806,93.877 -38.687,144.313 29.12,50.434 93.908,67.806 144.344,38.686 21.245,-12.267 36.623,-30.85 45.124,-52.03 -18.815,21.064 -44.364,36.888 -73.938,44.155 -0.04,0.013 -0.084,0.02 -0.125,0.033 -37.507,10.787 -78.796,-4.816 -99.217,-40.188 -24.07,-41.688 -9.845,-94.712 31.843,-118.78 13.028,-7.523 27.143,-11.314 41.156,-11.69 25.66,-0.685 50.898,10.098 68.188,30.25 l -41,28.97 c -5.497,-4.796 -12.664,-7.72 -20.53,-7.72 -17.277,0 -31.283,14.007 -31.283,31.282 0,17.276 14.004,31.282 31.282,31.282 17.277,0 31.28,-14.007 31.28,-31.283 0,-1.187 -0.06,-2.347 -0.188,-3.5 l 120.094,-57.312 4.03,-1.75 -0.06,-0.156 62.25,-29.72 9.25,-4.438 -5.282,-8.812 -19.97,-33.375 -5.155,-8.625 -8.25,5.813 -8.095,5.718 C 394.722,52.414 324.482,20.225 252.778,20.873 Z"
             fill="#ffffff"
             fill-opacity="1"
             id="path2"
             style="fill:#deaa87" /></g></g></g></g></svg>
