<?xml version="1.0" encoding="UTF-8" standalone="no"?>
<!-- Created with Inkscape (http://www.inkscape.org/) -->

<svg
   width="657.66571mm"
   height="68.310867mm"
   viewBox="0 0 657.66571 68.310867"
   version="1.1"
   id="svg1"
   xml:space="preserve"
   inkscape:export-filename="Stabilize.svg"
   inkscape:export-xdpi="96"
   inkscape:export-ydpi="96"
   sodipodi:docname="selfdead.svg"
   inkscape:version="1.4.2 (f4327f4, 2025-05-13)"
   xmlns:inkscape="http://www.inkscape.org/namespaces/inkscape"
   xmlns:sodipodi="http://sodipodi.sourceforge.net/DTD/sodipodi-0.dtd"
   xmlns="http://www.w3.org/2000/svg"
   xmlns:svg="http://www.w3.org/2000/svg"><sodipodi:namedview
     id="namedview1"
     pagecolor="#ffffff"
     bordercolor="#000000"
     borderopacity="0.25"
     inkscape:showpageshadow="2"
     inkscape:pageopacity="0.0"
     inkscape:pagecheckerboard="true"
     inkscape:deskcolor="#d1d1d1"
     inkscape:document-units="mm"
     inkscape:zoom="0.16414558"
     inkscape:cx="593.98494"
     inkscape:cy="-1839.8303"
     inkscape:window-width="1500"
     inkscape:window-height="1094"
     inkscape:window-x="2729"
     inkscape:window-y="56"
     inkscape:window-maximized="0"
     inkscape:current-layer="layer1-1"><inkscape:page
       x="0"
       y="0"
       width="657.66571"
       height="68.310867"
       id="page4"
       margin="0"
       bleed="0" /><inkscape:page
       x="-93.461372"
       y="-423.99551"
       width="0"
       height="0"
       id="page11"
       margin="0"
       bleed="0" /><inkscape:page
       x="39.892052"
       y="-94.601143"
       width="0"
       height="6.8386369"
       id="page12"
       margin="0"
       bleed="0" /></sodipodi:namedview><defs
     id="defs1"><rect
       x="564.3222"
       y="-805.55914"
       width="60.309238"
       height="77.540451"
       id="rect12" /><rect
       x="-158.39598"
       y="-1434.7021"
       width="3.0460765"
       height="12.184307"
       id="rect9" /><rect
       x="335.06842"
       y="-271.10083"
       width="3.0460765"
       height="18.276461"
       id="rect8" /><rect
       x="1098.4897"
       y="-318.7774"
       width="8.6156054"
       height="17.231213"
       id="rect7" /><rect
       x="-825.48676"
       y="176.67244"
       width="344.20667"
       height="39.598995"
       id="rect4" /><rect
       x="103.38727"
       y="-1068.3351"
       width="616.01581"
       height="818.48254"
       id="rect1" /><rect
       x="398"
       y="10"
       width="1194"
       height="398"
       id="rect3" /></defs><g
     inkscape:label="Layer 1"
     inkscape:groupmode="layer"
     id="layer1"
     transform="translate(42.994079,-119.92101)"><g
       inkscape:label="Layer 1"
       id="layer1-1"
       transform="translate(43.806975,1.7935886)"
       style="fill:#ff4d00;fill-opacity:1"><text
         xml:space="preserve"
         transform="matrix(1.0460111,0,0,1.0460111,-414.35167,124.97638)"
         id="text2"
         style="font-weight:bold;font-size:74.1972px;line-height:0.6;font-family:Arial;-inkscape-font-specification:'Arial, Bold';font-variant-caps:small-caps;letter-spacing:0px;word-spacing:0px;white-space:pre;shape-inside:url(#rect3);display:inline;fill:#ff0000;fill-opacity:1;stroke:#ffffff;stroke-width:0.0377953;stroke-miterlimit:3.3"><tspan
           x="398"
           y="52.719365"
           id="tspan1">Self Destruct</tspan></text><text
         xml:space="preserve"
         transform="matrix(0.26458333,0,0,0.26458333,-86.801054,120.26871)"
         id="text1"
         style="text-align:start;writing-mode:lr-tb;direction:ltr;white-space:pre;shape-inside:url(#rect1);display:inline;fill:#ff4d00;fill-opacity:1;stroke:#ffffff;stroke-width:0.445984" /><text
         xml:space="preserve"
         transform="matrix(0.26458333,0,0,0.26458333,-86.801054,120.26871)"
         id="text3"
         style="text-align:start;writing-mode:lr-tb;direction:ltr;white-space:pre;shape-inside:url(#rect4);display:inline;fill:#6c5d53;fill-opacity:1;stroke:#ffffff;stroke-width:0.445984" /><text
         xml:space="preserve"
         transform="matrix(0.26458333,0,0,0.26458333,-86.801054,118.46126)"
         id="text7"
         style="text-align:start;writing-mode:lr-tb;direction:ltr;white-space:pre;shape-inside:url(#rect7);display:inline;fill:#939dac;fill-opacity:1;stroke:#ffffff;stroke-width:0.445984" /><text
         xml:space="preserve"
         transform="matrix(0.26458333,0,0,0.26458333,-86.801054,118.46126)"
         id="text8"
         style="text-align:start;writing-mode:lr-tb;direction:ltr;white-space:pre;shape-inside:url(#rect8);display:inline;fill:#dbe3e2;fill-opacity:1;stroke:#ffffff;stroke-width:0.445984" /><text
         xml:space="preserve"
         transform="matrix(0.26458333,0,0,0.26458333,-86.801054,118.46126)"
         id="text9"
         style="text-align:start;writing-mode:lr-tb;direction:ltr;white-space:pre;shape-inside:url(#rect9);display:inline;fill:#c8ab37;fill-opacity:1;stroke:#ffffff;stroke-width:0.445984" /><text
         xml:space="preserve"
         transform="matrix(0.26458333,0,0,0.26458333,-86.801054,118.12742)"
         id="text12"
         style="text-align:start;writing-mode:lr-tb;direction:ltr;white-space:pre;shape-inside:url(#rect12);fill:#87de87;fill-opacity:1;stroke:#ffffff;stroke-width:0.445984" /><g
         id="g1"
         transform="matrix(0.26458333,0,0,0.26458333,268.79895,13.881589)"><path
           d="M 0,0 H 512 V 512 H 0 Z"
           fill="url(#pattern)"
           fill-opacity="1"
           id="path1" /><g
           class=""
           id="g2"
           style="fill:#ff0000"
           transform="matrix(0.54149004,0,0,0.54224724,-1328.388,383.61772)"><path
             d="m 104.53,28.72 c -0.676,0 -1.356,0.012 -2.03,0.03 C 86.314,29.185 70.923,34.858 58.125,44 23.995,68.378 7.578,119.233 39.562,162.72 64.796,197.023 53.799,242.317 27.688,267.625 l 13.03,13.406 C 72.958,249.784 85.971,194.271 54.625,151.657 28.415,116.022 42.253,78.324 69,59.22 82.374,49.666 98.767,45.21 115.28,48.47 c 15.853,3.126 32.335,13.31 46.907,35 l -59.875,34.655 24.344,42.28 c -49.898,63.943 -58.988,154.445 -16,229.126 56.487,98.133 181.517,131.802 279.281,75.19 97.765,-56.614 131.237,-182.057 74.75,-280.19 C 421.775,109.981 339.277,72.663 259.25,83.845 L 234.812,41.407 178.375,74.064 C 161.459,48.472 140.321,34.35 118.905,30.126 A 74.314,74.314 0 0 0 104.531,28.72 Z m 170.126,81.124 c 79.9,0 144.813,64.347 144.813,144.25 0,79.9 -64.913,144.844 -144.814,144.844 -79.9,0 -144.25,-64.945 -144.25,-144.844 0,-79.9 64.35,-144.25 144.25,-144.25 z m -9.094,25.187 v 88.19 c -13.248,4.192 -23.156,16.79 -23.156,31.218 0,17.726 14.962,32.125 32.688,32.125 16.82,0 30.63,-12.968 32,-29.438 l 76.53,-54.875 -10.905,-15.188 -70.283,50.407 c -4.103,-6.774 -10.542,-11.993 -18.187,-14.345 V 135.03 h -18.688 z m -42.187,11.314 -16.188,9.344 14.344,24.843 16.19,-9.374 -14.345,-24.812 z m 103.063,0 -14.344,24.812 16.187,9.375 14.345,-24.843 -16.188,-9.343 z m -150.125,40.22 -9.344,16.186 24.81,14.344 9.345,-16.188 -24.813,-14.344 z m 98.78,53.874 c 7.628,0 13.438,6.375 13.438,14 0,7.626 -5.81,13.437 -13.436,13.437 -7.627,0 -14,-5.81 -14,-13.438 0,-7.626 6.372,-14 14,-14 z m -119.437,4.5 v 18.687 h 28.656 v -18.688 h -28.656 z m 209.813,0 v 18.687 h 28.686 V 244.938 H 365.47 Z M 191.78,291.5 166.97,305.813 176.312,322 201.124,307.656 Z m 166.25,0 -9.342,16.156 24.812,14.344 9.344,-16.188 z m -136.5,36.563 -14.343,24.812 16.188,9.344 14.344,-24.814 -16.19,-9.344 z m 106.75,0 -16.186,9.343 14.344,24.813 16.187,-9.345 -14.344,-24.813 z m -62.717,16.812 v 28.656 h 18.687 v -28.655 h -18.688 z"
             fill="#ffffff"
             fill-opacity="1"
             id="path2"
             style="fill:#ff0000" /></g></g></g></g></svg>
